<?xml version="1.0" encoding="utf-8"?>
<!-- Generator: Adobe Illustrator 23.0.0, SVG Export Plug-In . SVG Version: 6.00 Build 0)  -->
<svg version="1.1" id="Layer_1" xmlns="http://www.w3.org/2000/svg" xmlns:xlink="http://www.w3.org/1999/xlink" x="0px" y="0px"
	 viewBox="0 0 440 440" style="enable-background:new 0 0 440 440;" xml:space="preserve">
<style type="text/css">
	.st0{fill:#F9CA3E;}
	.st1{fill:#FFFFFF;}
</style>
<title>ChoosePgh</title>
<g>
	<g>
		<path class="st0" d="M220,19.6c-110.8,0-200.9,90.1-200.9,200.9S109.2,421.4,220,421.4s200.9-90.1,200.9-200.9
			C420.9,109.8,330.8,19.6,220,19.6z M220,411.1c-105.1,0-190.6-85.5-190.6-190.6C29.4,115.5,114.9,30,220,30
			s190.6,85.5,190.6,190.6C410.5,325.6,325,411.1,220,411.1z"/>
	</g>
</g>
<g>
	<g>
		<circle class="st0" cx="220" cy="220.6" r="179.2"/>
	</g>
</g>
<g>
	<g>
		<g>
			<path class="st1" d="M264.2,234.5h-68.8c-9,0-16.3-7.3-16.3-16.3v-96.6c0-9,7.3-16.3,16.3-16.3h68.8c9,0,16.3,7.3,16.3,16.3v96.6
				C280.5,227.2,273.2,234.5,264.2,234.5z M195.4,120.6c-0.6,0-1.1,0.5-1.1,1.1v96.6c0,0.6,0.5,1.1,1.1,1.1h68.8
				c0.6,0,1.1-0.5,1.1-1.1v-96.6c0-0.6-0.5-1.1-1.1-1.1C264.2,120.6,195.4,120.6,195.4,120.6z"/>
		</g>
	</g>
	<g>
		<g>
			<path class="st1" d="M229.8,287.8L229.8,287.8L229.8,287.8c-2.7,0-9.5-1.2-15.1-12.3l-25.8-45c-1.3-2.4-1.3-5.2,0-7.6
				c1.4-2.3,3.9-3.8,6.6-3.8h68.7c2.7,0,5.2,1.4,6.6,3.8c1.4,2.3,1.4,5.2,0,7.6L245,275.6C239.2,286.6,232.4,287.8,229.8,287.8z
				 M208.6,234.2L228,268c0.1,0.1,0.1,0.2,0.2,0.4c0.4,0.9,1,1.8,1.6,2.6c0.6-0.9,1.2-1.8,1.6-2.6c0.1-0.1,0.1-0.2,0.2-0.4
				l19.4-33.9L208.6,234.2L208.6,234.2z"/>
		</g>
	</g>
	<g>
		<g>
			<path class="st1" d="M247.4,210.7c-4.2,0-7.6-3.4-7.6-7.6v-68.4c0-4.2,3.4-7.6,7.6-7.6c4.2,0,7.6,3.4,7.6,7.6v68.4
				C255.1,207.3,251.6,210.7,247.4,210.7z"/>
		</g>
	</g>
	<g>
		<g>
			<path class="st1" d="M233.1,114.8c-0.1,0-0.2,0-0.3,0c-4.2-0.2-7.4-3.7-7.3-7.9c0.1-1.9,0.1-11.3-7-12.9
				c-4.9-1.1-10.8,1-16.9,3.3c-4.1,1.5-8.2,3-12.6,3.8c-17.3,3.2-34.9,4.8-45.9-4.6c-6.3-5.4-9.4-13.6-9-24.4
				c0.1-4.2,3.7-7.5,7.9-7.3c4.2,0.1,7.5,3.7,7.3,7.9C149,81.6,152,84.2,153,85c7,6,25.3,2.6,33.2,1.2c3.1-0.6,6.5-1.8,10.1-3.2
				c7.6-2.8,16.3-6,25.6-3.9c12,2.7,19.4,13.9,18.8,28.4C240.5,111.6,237.1,114.8,233.1,114.8z"/>
		</g>
	</g>
	<g>
		<g>
			<path class="st1" d="M297.6,351.4H171.4c-4.2,0-7.6-3.4-7.6-7.6s3.4-7.6,7.6-7.6h126.3c4.2,0,7.6,3.4,7.6,7.6
				C305.2,348,301.8,351.4,297.6,351.4z"/>
		</g>
	</g>
	<g>
		<g>
			<path class="st1" d="M297.6,327H187.4c-4.2,0-7.6-3.4-7.6-7.6s3.4-7.6,7.6-7.6h110.3c4.2,0,7.6,3.4,7.6,7.6
				C305.2,323.6,301.8,327,297.6,327z"/>
		</g>
	</g>
	<g>
		<g>
			<path class="st1" d="M297.6,374.9H171.4c-4.2,0-7.6-3.4-7.6-7.6s3.4-7.6,7.6-7.6h126.3c4.2,0,7.6,3.4,7.6,7.6
				C305.2,371.5,301.8,374.9,297.6,374.9z"/>
		</g>
	</g>
	<g>
		<g>
			<path class="st1" d="M211,327h-22.8c-9,0-16.3-7.3-16.3-16.3v-3.8c0-9,7.3-16.3,16.3-16.3H211c4.2,0,7.6,3.4,7.6,7.6
				s-3.4,7.6-7.6,7.6h-22.8c-0.6,0-1.1,0.5-1.1,1.1v3.8c0,0.6,0.5,1.1,1.1,1.1H211c4.2,0,7.6,3.4,7.6,7.6
				C218.6,323.6,215.2,327,211,327z"/>
		</g>
	</g>
	<g>
		<g>
			<path class="st1" d="M222.9,305.8h-19c-4.2,0-7.6-3.4-7.6-7.6s3.4-7.6,7.6-7.6h18.4c0.1-0.2,0.2-0.6,0.2-1.1v-3.8
				c0-4.2,3.4-7.6,7.6-7.6c4.2,0,7.6,3.4,7.6,7.6v3.8C237.7,298.5,231.1,305.8,222.9,305.8z"/>
		</g>
	</g>
</g>
</svg>
