<?xml version="1.0" encoding="utf-8"?>
<!-- Generator: Adobe Illustrator 23.0.0, SVG Export Plug-In . SVG Version: 6.00 Build 0)  -->
<svg version="1.1" id="Layer_1" xmlns="http://www.w3.org/2000/svg" xmlns:xlink="http://www.w3.org/1999/xlink" x="0px" y="0px"
	 viewBox="0 0 440 440" style="enable-background:new 0 0 440 440;" xml:space="preserve">
<style type="text/css">
	.st0{fill:#C32F13;}
	.st1{fill:#FFFFFF;stroke:#FFFFFF;stroke-width:4;stroke-miterlimit:10;}
</style>
<title>ChoosePgh</title>
<g>
	<g>
		<path class="st0" d="M220,19.6c-110.8,0-200.9,90.1-200.9,200.9c0,110.8,90.1,200.9,200.9,200.9c110.8,0,200.9-90.1,200.9-200.9
			C420.9,109.8,330.8,19.6,220,19.6z M220,411.1c-105.1,0-190.6-85.5-190.6-190.6C29.4,115.5,114.9,30,220,30
			c105.1,0,190.6,85.5,190.6,190.6C410.5,325.6,325,411.1,220,411.1z"/>
	</g>
</g>
<g>
	<g>
		<circle class="st0" cx="220" cy="220.6" r="179.2"/>
	</g>
</g>
<g>
	<g>
		<g>
			<path class="st1" d="M353.6,258.9v-78.8c0.2-0.5,0.3-1,0.3-1.5c0-2-1.2-3.7-3-4.4l-135.6-51.3c-1.1-0.4-2.2-0.4-3.3,0L76.3,174.2
				c-1.8,0.7-3,2.4-3,4.4c0,2,1.2,3.7,3,4.4l33.1,12.5v39.4c0,2.4,1.8,4.4,4.2,4.7c0.4,0.1,44.6,4.8,88.7,46.2
				c3.2,3,7.2,4.5,11.2,4.5c4,0,8-1.5,11.2-4.5c44.1-41.5,88.3-46.2,88.8-46.2c2.4-0.2,4.3-2.3,4.3-4.7v-39.4l26.5-10v73.9
				c-6.9,2.3-11.9,8.8-11.9,16.5v37.9c0,2.6,2.1,4.7,4.7,4.7h25.3c2.6,0,4.7-2.1,4.7-4.7v-37.9C367,267.6,361.3,260.7,353.6,258.9z
				 M308.3,230.8c-12.6,2.2-51.1,11.5-90,48.1c-2.7,2.6-6.8,2.6-9.6,0c-39-36.7-77.4-46-90-48.1V199l93.2,35.2
				c0.5,0.2,1.1,0.3,1.6,0.3c0.6,0,1.1-0.1,1.7-0.3l93.2-35.2V230.8z M213.5,224.9L91.2,178.6l122.4-46.3l122.4,46.3L213.5,224.9z
				 M357.6,309.1h-15.9v-33.2c0-4.4,3.6-8,8-8c4.4,0,8,3.6,8,8V309.1z"/>
		</g>
	</g>
</g>
</svg>
