<?xml version="1.0" encoding="utf-8"?>
<!-- Generator: Adobe Illustrator 23.0.0, SVG Export Plug-In . SVG Version: 6.00 Build 0)  -->
<svg version="1.1" id="Layer_1" xmlns="http://www.w3.org/2000/svg" xmlns:xlink="http://www.w3.org/1999/xlink" x="0px" y="0px"
	 viewBox="0 0 440 440" style="enable-background:new 0 0 440 440;" xml:space="preserve">
<style type="text/css">
	.st0{fill:#C32F13;}
	.st1{fill:#FFFFFF;stroke:#FFFFFF;stroke-width:4;stroke-miterlimit:10;}
	.st2{fill:#FFFFFF;}
	.st3{fill:#FFFFFF;stroke:#FFFFFF;stroke-width:5;stroke-miterlimit:10;}
</style>
<title>ChoosePgh</title>
<g>
	<g>
		<path class="st0" d="M220,19.6c-110.8,0-200.9,90.1-200.9,200.9S109.2,421.4,220,421.4s200.9-90.1,200.9-200.9
			C420.9,109.8,330.8,19.6,220,19.6z M220,411.1c-105.1,0-190.6-85.5-190.6-190.6C29.4,115.5,114.9,30,220,30
			s190.6,85.5,190.6,190.6C410.5,325.6,325,411.1,220,411.1z"/>
	</g>
</g>
<g>
	<g>
		<circle class="st0" cx="220" cy="220.6" r="179.2"/>
	</g>
</g>
<g>
	<g>
		<g>
			<path class="st1" d="M170.9,244.6l-55.5-43.9l-0.2-0.1c-0.1-0.1-0.3-0.2-0.5-0.2h-2.9l0,0c-0.2,0-0.3,0.1-0.5,0.2l-18.7,14.8
				v-0.1c0-0.6-0.4-1.1-0.9-1.1H70.3c-0.5,0-0.9,0.5-0.9,1.1v18.6l-13.6,10.8c-0.4,0.3-0.5,1-0.3,1.5l0.1,0.1
				c0.2,0.3,0.5,0.5,0.8,0.5h9.1c0.2,0,0.3-0.1,0.5-0.2l9.9-7.9c0.3-0.2,0.4-0.6,0.4-0.9v-15.3H86v6.2c0,0.4,0.2,0.8,0.5,1
				c0.1,0.1,0.3,0.1,0.4,0.1c0.2,0,0.3-0.1,0.5-0.2l25.9-20.5h0.2l47.4,37.5c0.1,0.1,0.3,0.2,0.5,0.2h9.1c0.3,0,0.6-0.2,0.8-0.5
				l0.1-0.1C171.4,245.6,171.3,244.9,170.9,244.6z"/>
		</g>
	</g>
</g>
<g>
	<g>
		<g>
			<rect x="91.9" y="240.5" class="st2" width="19.2" height="23.5"/>
		</g>
	</g>
	<g>
		<g>
			<rect x="115.6" y="240.5" class="st2" width="19.2" height="23.5"/>
		</g>
	</g>
	<g>
		<g>
			<rect x="91.9" y="270.2" class="st2" width="19.2" height="23.5"/>
		</g>
	</g>
	<g>
		<g>
			<rect x="115.6" y="270.2" class="st2" width="19.2" height="23.5"/>
		</g>
	</g>
</g>
<g>
	<g>
		<g>
			<path class="st1" d="M277.5,244.6L222,200.7l-0.2-0.1c-0.1-0.1-0.3-0.2-0.5-0.2h-2.9l0,0c-0.2,0-0.3,0.1-0.5,0.2l-18.7,14.8v-0.1
				c0-0.6-0.4-1.1-0.9-1.1h-21.5c-0.5,0-0.9,0.5-0.9,1.1v18.6l-13.6,10.8c-0.4,0.3-0.5,1-0.3,1.5l0.1,0.1c0.2,0.3,0.5,0.5,0.8,0.5
				h9.1c0.2,0,0.3-0.1,0.5-0.2l9.9-7.9c0.3-0.2,0.4-0.6,0.4-0.9v-15.3h9.7v6.2c0,0.4,0.2,0.8,0.5,1c0.1,0.1,0.3,0.1,0.4,0.1
				c0.2,0,0.3-0.1,0.5-0.2l25.9-20.5h0.2l47.4,37.5c0.1,0.1,0.3,0.2,0.5,0.2h9.1c0.3,0,0.6-0.2,0.8-0.5l0.1-0.1
				C278,245.6,277.9,244.9,277.5,244.6z"/>
		</g>
	</g>
</g>
<g>
	<g>
		<g>
			<rect x="198.5" y="240.5" class="st2" width="19.2" height="23.5"/>
		</g>
	</g>
	<g>
		<g>
			<rect x="222.2" y="240.5" class="st2" width="19.2" height="23.5"/>
		</g>
	</g>
	<g>
		<g>
			<rect x="198.5" y="270.2" class="st2" width="19.2" height="23.5"/>
		</g>
	</g>
	<g>
		<g>
			<rect x="222.2" y="270.2" class="st2" width="19.2" height="23.5"/>
		</g>
	</g>
</g>
<g>
	<g>
		<g>
			<path class="st1" d="M384,244.6l-55.5-43.9l-0.2-0.1c-0.1-0.1-0.3-0.2-0.5-0.2h-2.9l0,0c-0.2,0-0.3,0.1-0.5,0.2l-18.7,14.8v-0.1
				c0-0.6-0.4-1.1-0.9-1.1h-21.5c-0.5,0-0.9,0.5-0.9,1.1v18.6l-13.6,10.8c-0.4,0.3-0.5,1-0.3,1.5l0.1,0.1c0.2,0.3,0.5,0.5,0.8,0.5
				h9.1c0.2,0,0.3-0.1,0.5-0.2l9.9-7.9c0.3-0.2,0.4-0.6,0.4-0.9v-15.3h9.7v6.2c0,0.4,0.2,0.8,0.5,1c0.1,0.1,0.3,0.1,0.4,0.1
				c0.2,0,0.3-0.1,0.5-0.2l25.9-20.5h0.2l47.4,37.5c0.1,0.1,0.3,0.2,0.5,0.2h9.1c0.3,0,0.6-0.2,0.8-0.5l0.1-0.1
				C384.6,245.6,384.5,244.9,384,244.6z"/>
		</g>
	</g>
</g>
<g>
	<g>
		<g>
			<rect x="305" y="240.5" class="st2" width="19.2" height="23.5"/>
		</g>
	</g>
	<g>
		<g>
			<rect x="328.7" y="240.5" class="st2" width="19.2" height="23.5"/>
		</g>
	</g>
	<g>
		<g>
			<rect x="305" y="270.2" class="st2" width="19.2" height="23.5"/>
		</g>
	</g>
	<g>
		<g>
			<rect x="328.7" y="270.2" class="st2" width="19.2" height="23.5"/>
		</g>
	</g>
</g>
<g>
	<g>
		<g>
			<path class="st3" d="M218.8,190.4l-55.5-43.9l-0.2-0.1c-0.1-0.1-0.3-0.2-0.5-0.2h-2.9l0,0c-0.2,0-0.3,0.1-0.5,0.2l-18.7,14.8V161
				c0-0.6-0.4-1.1-0.9-1.1h-21.5c-0.5,0-0.9,0.5-0.9,1.1v18.6l-13.6,10.8c-0.4,0.3-0.5,1-0.3,1.5l0.1,0.1c0.2,0.3,0.5,0.5,0.8,0.5
				h9.1c0.2,0,0.3-0.1,0.5-0.2l9.9-7.9c0.3-0.2,0.4-0.6,0.4-0.9v-15.3h9.7v6.2c0,0.4,0.2,0.8,0.5,1c0.1,0.1,0.3,0.1,0.4,0.1
				c0.2,0,0.3-0.1,0.5-0.2l25.9-20.5h0.2l47.4,37.5c0.1,0.1,0.3,0.2,0.5,0.2h9.1c0.3,0,0.6-0.2,0.8-0.5l0.1-0.1
				C219.3,191.4,219.2,190.7,218.8,190.4z"/>
		</g>
	</g>
</g>
<g>
	<g>
		<g>
			<rect x="139.8" y="186.3" class="st2" width="19.2" height="23.5"/>
		</g>
	</g>
	<g>
		<g>
			<rect x="163.5" y="186.3" class="st2" width="19.2" height="23.5"/>
		</g>
	</g>
</g>
<g>
	<g>
		<g>
			<path class="st3" d="M336.1,190.4l-55.5-43.9l-0.2-0.1c-0.1-0.1-0.3-0.2-0.5-0.2H277l0,0c-0.2,0-0.3,0.1-0.5,0.2L258,161.1V161
				c0-0.6-0.4-1.1-0.9-1.1h-21.5c-0.5,0-0.9,0.5-0.9,1.1v18.6L221,190.4c-0.4,0.3-0.5,1-0.3,1.5l0.1,0.1c0.2,0.3,0.5,0.5,0.8,0.5
				h9.1c0.2,0,0.3-0.1,0.5-0.2l9.9-7.9c0.3-0.2,0.4-0.6,0.4-0.9v-15.3h9.7v6.2c0,0.4,0.2,0.8,0.5,1c0.1,0.1,0.3,0.1,0.4,0.1
				c0.2,0,0.3-0.1,0.5-0.2l25.9-20.5h0.2l47.4,37.5c0.1,0.1,0.3,0.2,0.5,0.2h9.1c0.3,0,0.6-0.2,0.8-0.5l0.1-0.1
				C336.7,191.4,336.6,190.7,336.1,190.4z"/>
		</g>
	</g>
</g>
<g>
	<g>
		<g>
			<rect x="257.1" y="186.3" class="st2" width="19.2" height="23.5"/>
		</g>
	</g>
	<g>
		<g>
			<rect x="280.8" y="186.3" class="st2" width="19.2" height="23.5"/>
		</g>
	</g>
</g>
</svg>
