<?xml version="1.0" encoding="utf-8"?>
<!-- Generator: Adobe Illustrator 23.0.1, SVG Export Plug-In . SVG Version: 6.00 Build 0)  -->
<svg version="1.1" id="Layer_1" xmlns="http://www.w3.org/2000/svg" xmlns:xlink="http://www.w3.org/1999/xlink" x="0px" y="0px"
	 viewBox="0 0 959.8 312" style="enable-background:new 0 0 959.8 312;" xml:space="preserve">
<style type="text/css">
	.st0{fill:#ED7D34;}
	.st1{fill:none;stroke:#000000;stroke-width:1.5375;stroke-miterlimit:10;}
	.st2{fill:none;stroke:#000000;stroke-width:1.538;stroke-miterlimit:10;}
	.st3{fill:#231F20;}
	.st4{fill:#A2C93A;}
	.st5{fill:#67308F;stroke:#000000;stroke-width:1.5375;stroke-miterlimit:10;}
	.st6{fill:#FFFFFF;}
</style>
<rect x="91" y="110" class="st0" width="796" height="83"/>
<line class="st1" x1="92.4" y1="152.2" x2="883.4" y2="152.2"/>
<path d="M100.1,151.7l-3.6,7.6l-3.6-7.6C93,151.7,100.1,151.6,100.1,151.7z"/>
<path d="M280.7,151.7l-3.6,7.6l-3.6-7.6C273.5,151.7,280.7,151.6,280.7,151.7z"/>
<path d="M333.4,151.7l-3.6,7.6l-3.6-7.6C326.3,151.7,333.4,151.6,333.4,151.7z"/>
<path d="M363.2,151.7l-3.6,7.6l-3.6-7.6C356,151.7,363.2,151.6,363.2,151.7z"/>
<path d="M578.1,151.7l-3.6,7.6l-3.6-7.6C570.9,151.7,578.1,151.6,578.1,151.7z"/>
<path d="M624.1,151.7l-3.6,7.6l-3.6-7.6C616.9,151.7,624.1,151.6,624.1,151.7z"/>
<path d="M218.3,151.7l-3.6,7.6l-3.6-7.6C211.2,151.7,218.3,151.6,218.3,151.7z"/>
<path d="M256.7,151.7l-3.6,7.6l-3.6-7.6C249.6,151.7,256.7,151.6,256.7,151.7z"/>
<path d="M885.8,151.3l-3.6,7.7l-3.6-7.7C878.7,151.3,885.8,151.2,885.8,151.3z"/>
<path d="M163.1,152.6l-3.6-7.6l-3.6,7.6C155.9,152.6,163.1,152.7,163.1,152.6z"/>
<path d="M242.1,152.6l-3.6-7.6l-3.6,7.6C234.9,152.6,242.1,152.7,242.1,152.6z"/>
<path d="M268.8,152.6l-3.6-7.6l-3.6,7.6C261.7,152.6,268.8,152.7,268.8,152.6z"/>
<path d="M329.1,152.6l-3.6-7.6l-3.6,7.6C321.9,152.6,329.1,152.7,329.1,152.6z"/>
<path d="M336.6,152.6L333,145l-3.6,7.6C329.4,152.6,336.6,152.7,336.6,152.6z"/>
<path d="M615.8,152.6l-3.6-7.6l-3.6,7.6C608.7,152.6,615.8,152.7,615.8,152.6z"/>
<path d="M394.1,152.6l-3.6-7.6l-3.6,7.6C386.9,152.6,394.1,152.7,394.1,152.6z"/>
<path d="M707.6,152.6L704,145l-3.6,7.6C700.4,152.6,707.6,152.7,707.6,152.6z"/>
<line class="st1" x1="882.5" y1="152.8" x2="882.5" y2="214"/>
<polyline class="st1" points="620.4,153.1 620.4,223.8 640.8,243.5 "/>
<polyline class="st1" points="359.4,153.1 359.4,225.2 375,246.5 "/>
<line class="st1" x1="329.6" y1="153.1" x2="329.6" y2="214.4"/>
<polyline class="st1" points="277.1,153.1 277.1,225 287.5,245.5 "/>
<line class="st1" x1="253.1" y1="153.1" x2="253.1" y2="274"/>
<line class="st1" x1="214.6" y1="153.1" x2="214.6" y2="214.4"/>
<line class="st1" x1="96.4" y1="153.1" x2="96.4" y2="214.4"/>
<polyline class="st2" points="574.6,153.1 574.6,224.5 557.5,244.2 "/>
<line class="st1" x1="704" y1="88.5" x2="704" y2="149.8"/>
<line class="st1" x1="612.5" y1="88.5" x2="612.5" y2="149.8"/>
<line class="st1" x1="390.2" y1="88.5" x2="390.2" y2="149.8"/>
<line class="st1" x1="390.5" y1="88.8" x2="390.5" y2="150"/>
<line class="st1" x1="325.5" y1="31" x2="325.5" y2="150"/>
<line class="st1" x1="265.2" y1="32.2" x2="265.2" y2="150"/>
<line class="st1" x1="238.5" y1="60.2" x2="238.5" y2="150"/>
<line class="st1" x1="159.5" y1="88.8" x2="159.5" y2="150"/>
<polyline class="st1" points="333,149.8 333,69 353,51.5 "/>
<g>
	<path class="st3" d="M59.3,232.8v-11.5h2.3l2.7,8.1c0.2,0.8,0.4,1.3,0.5,1.7c0.1-0.4,0.3-1,0.6-1.8l2.7-8h2v11.5h-1.5v-9.6
		l-3.3,9.6h-1.4l-3.3-9.8v9.8H59.3z"/>
	<path class="st3" d="M72.5,223v-1.6h1.4v1.6H72.5z M72.5,232.8v-8.3h1.4v8.3H72.5z"/>
	<path class="st3" d="M76.1,232.8v-11.5h1.4v11.5H76.1z"/>
	<path class="st3" d="M81.2,232.8l-2.5-8.3h1.5l1.3,4.8l0.5,1.8c0-0.1,0.2-0.7,0.4-1.7l1.3-4.9h1.4l1.2,4.8l0.4,1.6l0.5-1.6l1.4-4.8
		H90l-2.6,8.3H86l-1.3-5l-0.3-1.4l-1.7,6.4H81.2z"/>
	<path class="st3" d="M96.6,231.8c-0.5,0.4-1,0.8-1.5,0.9s-1,0.3-1.6,0.3c-0.9,0-1.6-0.2-2.1-0.7s-0.7-1-0.7-1.7
		c0-0.4,0.1-0.8,0.3-1.1s0.4-0.6,0.7-0.8s0.6-0.4,1-0.5c0.3-0.1,0.7-0.1,1.2-0.2c1.1-0.1,2-0.3,2.5-0.5c0-0.2,0-0.3,0-0.4
		c0-0.6-0.1-1-0.4-1.2c-0.4-0.3-0.9-0.5-1.6-0.5c-0.7,0-1.1,0.1-1.5,0.3c-0.3,0.2-0.5,0.6-0.7,1.2l-1.4-0.2c0.1-0.6,0.3-1.1,0.6-1.4
		c0.3-0.4,0.7-0.6,1.2-0.8s1.2-0.3,1.9-0.3c0.7,0,1.3,0.1,1.7,0.2c0.4,0.2,0.8,0.4,1,0.6c0.2,0.3,0.4,0.6,0.4,1
		c0,0.2,0.1,0.7,0.1,1.3v1.9c0,1.3,0,2.1,0.1,2.5c0.1,0.3,0.2,0.7,0.4,1h-1.5C96.7,232.5,96.7,232.2,96.6,231.8z M96.5,228.7
		c-0.5,0.2-1.3,0.4-2.3,0.5c-0.6,0.1-1,0.2-1.2,0.3c-0.2,0.1-0.4,0.3-0.6,0.5c-0.1,0.2-0.2,0.4-0.2,0.7c0,0.4,0.1,0.7,0.4,0.9
		s0.7,0.4,1.2,0.4c0.5,0,1-0.1,1.4-0.4c0.4-0.2,0.7-0.6,0.9-1c0.2-0.3,0.2-0.8,0.2-1.4V228.7z"/>
	<path class="st3" d="M105.5,232.8v-1.2c-0.6,0.9-1.5,1.4-2.6,1.4c-0.5,0-0.9-0.1-1.4-0.3s-0.7-0.4-0.9-0.7c-0.2-0.3-0.4-0.6-0.4-1
		c-0.1-0.3-0.1-0.7-0.1-1.3v-5.1h1.4v4.6c0,0.7,0,1.2,0.1,1.5c0.1,0.4,0.3,0.7,0.6,0.9s0.6,0.3,1.1,0.3s0.8-0.1,1.2-0.3
		c0.4-0.2,0.6-0.5,0.8-0.9c0.2-0.4,0.2-0.9,0.2-1.6v-4.4h1.4v8.3H105.5z"/>
	<path class="st3" d="M109,232.8v-11.5h1.4v6.5l3.3-3.4h1.8l-3.2,3.1l3.5,5.2h-1.7l-2.7-4.2l-1,1v3.3H109z"/>
	<path class="st3" d="M122.7,230.2l1.5,0.2c-0.2,0.8-0.7,1.5-1.3,2s-1.4,0.7-2.4,0.7c-1.2,0-2.2-0.4-2.9-1.1
		c-0.7-0.7-1.1-1.8-1.1-3.1c0-1.4,0.4-2.5,1.1-3.2c0.7-0.8,1.7-1.2,2.8-1.2c1.1,0,2,0.4,2.7,1.1c0.7,0.8,1.1,1.8,1.1,3.2
		c0,0.1,0,0.2,0,0.4H118c0.1,0.9,0.3,1.6,0.8,2.1s1,0.7,1.7,0.7c0.5,0,1-0.1,1.3-0.4C122.2,231.2,122.5,230.8,122.7,230.2z
		 M118.1,227.9h4.6c-0.1-0.7-0.2-1.2-0.5-1.6c-0.4-0.5-1-0.8-1.7-0.8c-0.6,0-1.2,0.2-1.6,0.6C118.3,226.6,118.1,227.2,118.1,227.9z"
		/>
	<path class="st3" d="M131.6,230.2l1.5,0.2c-0.2,0.8-0.7,1.5-1.3,2s-1.4,0.7-2.4,0.7c-1.2,0-2.2-0.4-2.9-1.1
		c-0.7-0.7-1.1-1.8-1.1-3.1c0-1.4,0.4-2.5,1.1-3.2c0.7-0.8,1.7-1.2,2.8-1.2c1.1,0,2,0.4,2.7,1.1c0.7,0.8,1.1,1.8,1.1,3.2
		c0,0.1,0,0.2,0,0.4h-6.2c0.1,0.9,0.3,1.6,0.8,2.1s1,0.7,1.7,0.7c0.5,0,1-0.1,1.3-0.4C131.1,231.2,131.4,230.8,131.6,230.2z
		 M127,227.9h4.6c-0.1-0.7-0.2-1.2-0.5-1.6c-0.4-0.5-1-0.8-1.7-0.8c-0.6,0-1.2,0.2-1.6,0.6C127.2,226.6,127,227.2,127,227.9z"/>
</g>
<g>
	<path class="st3" d="M175.9,233.4V222h4.3c0.9,0,1.6,0.1,2.1,0.3c0.5,0.2,0.9,0.6,1.2,1.1c0.3,0.5,0.4,1,0.4,1.5
		c0,0.5-0.1,1-0.4,1.4c-0.3,0.4-0.7,0.8-1.2,1c0.7,0.2,1.2,0.5,1.6,1c0.4,0.5,0.6,1.1,0.6,1.7c0,0.5-0.1,1-0.3,1.5s-0.5,0.8-0.8,1.1
		s-0.8,0.4-1.3,0.6c-0.5,0.1-1.1,0.2-1.8,0.2H175.9z M177.4,226.8h2.5c0.7,0,1.2,0,1.4-0.1c0.4-0.1,0.7-0.3,0.9-0.6s0.3-0.6,0.3-1
		c0-0.4-0.1-0.7-0.3-1s-0.4-0.5-0.8-0.6c-0.3-0.1-0.9-0.2-1.7-0.2h-2.3V226.8z M177.4,232.1h2.9c0.5,0,0.8,0,1-0.1
		c0.3-0.1,0.6-0.2,0.9-0.3c0.2-0.1,0.4-0.4,0.6-0.6c0.2-0.3,0.2-0.6,0.2-1c0-0.4-0.1-0.8-0.3-1.1c-0.2-0.3-0.5-0.5-0.9-0.7
		c-0.4-0.1-0.9-0.2-1.7-0.2h-2.6V232.1z"/>
	<path class="st3" d="M191.9,232.4c-0.5,0.4-1,0.8-1.5,0.9s-1,0.3-1.6,0.3c-0.9,0-1.6-0.2-2.1-0.7s-0.7-1-0.7-1.7
		c0-0.4,0.1-0.8,0.3-1.1s0.4-0.6,0.7-0.8s0.6-0.4,1-0.5c0.3-0.1,0.7-0.1,1.2-0.2c1.1-0.1,2-0.3,2.5-0.5c0-0.2,0-0.3,0-0.4
		c0-0.6-0.1-1-0.4-1.2c-0.4-0.3-0.9-0.5-1.6-0.5c-0.7,0-1.1,0.1-1.5,0.3c-0.3,0.2-0.5,0.6-0.7,1.2l-1.4-0.2c0.1-0.6,0.3-1.1,0.6-1.4
		c0.3-0.4,0.7-0.6,1.2-0.8s1.2-0.3,1.9-0.3c0.7,0,1.3,0.1,1.7,0.2c0.4,0.2,0.8,0.4,1,0.6c0.2,0.3,0.4,0.6,0.4,1
		c0,0.2,0.1,0.7,0.1,1.3v1.9c0,1.3,0,2.1,0.1,2.5c0.1,0.3,0.2,0.7,0.4,1h-1.5C192,233.1,191.9,232.8,191.9,232.4z M191.8,229.2
		c-0.5,0.2-1.3,0.4-2.3,0.5c-0.6,0.1-1,0.2-1.2,0.3c-0.2,0.1-0.4,0.3-0.6,0.5c-0.1,0.2-0.2,0.4-0.2,0.7c0,0.4,0.1,0.7,0.4,0.9
		s0.7,0.4,1.2,0.4c0.5,0,1-0.1,1.4-0.4c0.4-0.2,0.7-0.6,0.9-1c0.2-0.3,0.2-0.8,0.2-1.4V229.2z"/>
	<path class="st3" d="M195.3,233.4V222h1.4v11.5H195.3z"/>
	<path class="st3" d="M202,232.1l0.2,1.2c-0.4,0.1-0.8,0.1-1.1,0.1c-0.5,0-0.9-0.1-1.2-0.2s-0.5-0.4-0.6-0.6
		c-0.1-0.3-0.2-0.8-0.2-1.7v-4.8h-1v-1.1h1v-2.1l1.4-0.8v2.9h1.4v1.1h-1.4v4.9c0,0.4,0,0.7,0.1,0.8c0,0.1,0.1,0.2,0.2,0.3
		c0.1,0.1,0.3,0.1,0.5,0.1C201.5,232.2,201.7,232.2,202,232.1z"/>
	<path class="st3" d="M203.4,223.6V222h1.4v1.6H203.4z M203.4,233.4v-8.3h1.4v8.3H203.4z"/>
	<path class="st3" d="M206.9,233.4v-8.3h1.3v1.2c0.3-0.4,0.6-0.7,1-1c0.4-0.2,0.9-0.4,1.5-0.4c0.6,0,1.1,0.1,1.5,0.4
		c0.4,0.3,0.7,0.6,0.8,1.1c0.7-1,1.5-1.5,2.6-1.5c0.8,0,1.5,0.2,1.9,0.7c0.4,0.5,0.7,1.2,0.7,2.1v5.7h-1.4v-5.2c0-0.6,0-1-0.1-1.2
		c-0.1-0.2-0.3-0.4-0.5-0.6c-0.2-0.2-0.5-0.2-0.8-0.2c-0.6,0-1.1,0.2-1.5,0.6c-0.4,0.4-0.6,1-0.6,1.9v4.8h-1.4V228
		c0-0.6-0.1-1.1-0.3-1.4s-0.6-0.5-1.1-0.5c-0.4,0-0.8,0.1-1.1,0.3c-0.3,0.2-0.6,0.5-0.7,0.9c-0.2,0.4-0.2,1-0.2,1.7v4.3H206.9z"/>
	<path class="st3" d="M219.7,229.3c0-1.5,0.4-2.7,1.3-3.4c0.7-0.6,1.6-0.9,2.6-0.9c1.1,0,2.1,0.4,2.8,1.1c0.7,0.7,1.1,1.8,1.1,3.1
		c0,1.1-0.2,1.9-0.5,2.5c-0.3,0.6-0.8,1.1-1.4,1.4s-1.3,0.5-2,0.5c-1.2,0-2.1-0.4-2.8-1.1C220.1,231.7,219.7,230.7,219.7,229.3z
		 M221.2,229.3c0,1.1,0.2,1.9,0.7,2.4c0.5,0.5,1,0.8,1.8,0.8c0.7,0,1.3-0.3,1.7-0.8s0.7-1.3,0.7-2.4c0-1-0.2-1.8-0.7-2.3
		c-0.5-0.5-1-0.8-1.7-0.8c-0.7,0-1.3,0.3-1.8,0.8C221.4,227.4,221.2,228.2,221.2,229.3z"/>
	<path class="st3" d="M229.1,233.4v-8.3h1.3v1.3c0.3-0.6,0.6-1,0.9-1.2s0.6-0.3,0.9-0.3c0.5,0,1,0.2,1.4,0.5l-0.5,1.3
		c-0.3-0.2-0.7-0.3-1-0.3c-0.3,0-0.6,0.1-0.8,0.3c-0.2,0.2-0.4,0.4-0.5,0.8c-0.2,0.5-0.2,1-0.2,1.6v4.3H229.1z"/>
	<path class="st3" d="M240.2,230.7l1.5,0.2c-0.2,0.8-0.7,1.5-1.3,2s-1.4,0.7-2.4,0.7c-1.2,0-2.2-0.4-2.9-1.1
		c-0.7-0.7-1.1-1.8-1.1-3.1c0-1.4,0.4-2.5,1.1-3.2c0.7-0.8,1.7-1.2,2.8-1.2c1.1,0,2,0.4,2.7,1.1c0.7,0.8,1.1,1.8,1.1,3.2
		c0,0.1,0,0.2,0,0.4h-6.2c0.1,0.9,0.3,1.6,0.8,2.1s1,0.7,1.7,0.7c0.5,0,1-0.1,1.3-0.4C239.7,231.8,240,231.3,240.2,230.7z
		 M235.5,228.5h4.6c-0.1-0.7-0.2-1.2-0.5-1.6c-0.4-0.5-1-0.8-1.7-0.8c-0.6,0-1.2,0.2-1.6,0.6C235.8,227.2,235.6,227.7,235.5,228.5z"
		/>
</g>
<g>
	<path class="st3" d="M273.5,259.2l1.5,0.4c-0.3,1.2-0.9,2.2-1.7,2.8s-1.8,1-3,1c-1.2,0-2.2-0.3-3-0.8s-1.4-1.2-1.8-2.2
		s-0.6-2-0.6-3.1c0-1.2,0.2-2.2,0.7-3.1s1.1-1.6,1.9-2s1.8-0.7,2.8-0.7c1.1,0,2.1,0.3,2.9,0.9s1.3,1.4,1.6,2.5l-1.5,0.4
		c-0.3-0.8-0.7-1.4-1.2-1.8s-1.1-0.6-1.9-0.6c-0.9,0-1.6,0.2-2.2,0.6s-1,1-1.2,1.7s-0.4,1.4-0.4,2.2c0,1,0.1,1.8,0.4,2.6
		s0.7,1.3,1.3,1.6s1.2,0.5,1.9,0.5c0.8,0,1.6-0.2,2.2-0.7S273.3,260.2,273.5,259.2z"/>
	<path class="st3" d="M276.7,253.4v-1.6h1.4v1.6H276.7z M276.7,263.2v-8.3h1.4v8.3H276.7z"/>
	<path class="st3" d="M280.3,263.2v-8.3h1.3v1.2c0.6-0.9,1.5-1.4,2.6-1.4c0.5,0,1,0.1,1.4,0.3s0.7,0.4,0.9,0.7s0.4,0.6,0.4,1
		c0.1,0.3,0.1,0.7,0.1,1.4v5.1h-1.4v-5c0-0.6-0.1-1-0.2-1.3s-0.3-0.5-0.6-0.7s-0.6-0.3-1-0.3c-0.6,0-1.1,0.2-1.6,0.6
		s-0.7,1.1-0.7,2.2v4.5H280.3z"/>
	<path class="st3" d="M294.6,260.2l1.4,0.2c-0.2,1-0.5,1.7-1.2,2.2s-1.4,0.8-2.3,0.8c-1.1,0-2-0.4-2.7-1.1s-1-1.8-1-3.2
		c0-0.9,0.1-1.7,0.4-2.4s0.7-1.2,1.4-1.5s1.3-0.5,2-0.5c0.9,0,1.6,0.2,2.2,0.7s0.9,1.1,1.1,1.9l-1.4,0.2c-0.1-0.6-0.4-1-0.7-1.3
		s-0.7-0.4-1.2-0.4c-0.7,0-1.3,0.3-1.7,0.8s-0.7,1.3-0.7,2.4c0,1.1,0.2,1.9,0.6,2.4s1,0.8,1.7,0.8c0.6,0,1-0.2,1.4-0.5
		S294.5,260.9,294.6,260.2z"/>
	<path class="st3" d="M297.2,253.4v-1.6h1.4v1.6H297.2z M297.2,263.2v-8.3h1.4v8.3H297.2z"/>
	<path class="st3" d="M300.7,263.2v-8.3h1.3v1.2c0.6-0.9,1.5-1.4,2.6-1.4c0.5,0,1,0.1,1.4,0.3s0.7,0.4,0.9,0.7s0.4,0.6,0.4,1
		c0.1,0.3,0.1,0.7,0.1,1.4v5.1h-1.4v-5c0-0.6-0.1-1-0.2-1.3s-0.3-0.5-0.6-0.7s-0.6-0.3-1-0.3c-0.6,0-1.1,0.2-1.6,0.6
		s-0.7,1.1-0.7,2.2v4.5H300.7z"/>
	<path class="st3" d="M309.6,263.2v-8.3h1.3v1.2c0.6-0.9,1.5-1.4,2.6-1.4c0.5,0,1,0.1,1.4,0.3s0.7,0.4,0.9,0.7s0.4,0.6,0.4,1
		c0.1,0.3,0.1,0.7,0.1,1.4v5.1h-1.4v-5c0-0.6-0.1-1-0.2-1.3s-0.3-0.5-0.6-0.7s-0.6-0.3-1-0.3c-0.6,0-1.1,0.2-1.6,0.6
		s-0.7,1.1-0.7,2.2v4.5H309.6z"/>
	<path class="st3" d="M323.9,262.2c-0.5,0.4-1,0.8-1.5,0.9s-1,0.3-1.6,0.3c-0.9,0-1.6-0.2-2.1-0.7s-0.7-1-0.7-1.7
		c0-0.4,0.1-0.8,0.3-1.1s0.4-0.6,0.7-0.8s0.6-0.4,1-0.5c0.3-0.1,0.7-0.1,1.2-0.2c1.1-0.1,2-0.3,2.5-0.5c0-0.2,0-0.3,0-0.4
		c0-0.6-0.1-1-0.4-1.2c-0.4-0.3-0.9-0.5-1.6-0.5c-0.7,0-1.1,0.1-1.5,0.3s-0.5,0.6-0.7,1.2l-1.4-0.2c0.1-0.6,0.3-1.1,0.6-1.4
		s0.7-0.6,1.2-0.8s1.2-0.3,1.9-0.3c0.7,0,1.3,0.1,1.7,0.2s0.8,0.4,1,0.6s0.4,0.6,0.4,1c0,0.2,0.1,0.7,0.1,1.3v1.9
		c0,1.3,0,2.1,0.1,2.5s0.2,0.7,0.4,1h-1.5C324.1,262.9,324,262.6,323.9,262.2z M323.8,259.1c-0.5,0.2-1.3,0.4-2.3,0.5
		c-0.6,0.1-1,0.2-1.2,0.3s-0.4,0.3-0.6,0.5s-0.2,0.4-0.2,0.7c0,0.4,0.1,0.7,0.4,0.9s0.7,0.4,1.2,0.4c0.5,0,1-0.1,1.4-0.4
		s0.7-0.6,0.9-1c0.2-0.3,0.2-0.8,0.2-1.4V259.1z"/>
	<path class="st3" d="M330.5,262l0.2,1.2c-0.4,0.1-0.8,0.1-1.1,0.1c-0.5,0-0.9-0.1-1.2-0.2s-0.5-0.4-0.6-0.6s-0.2-0.8-0.2-1.7V256
		h-1v-1.1h1v-2.1l1.4-0.8v2.9h1.4v1.1h-1.4v4.9c0,0.4,0,0.7,0.1,0.8s0.1,0.2,0.2,0.3s0.3,0.1,0.5,0.1C330,262,330.2,262,330.5,262z"
		/>
	<path class="st3" d="M331.9,253.4v-1.6h1.4v1.6H331.9z M331.9,263.2v-8.3h1.4v8.3H331.9z"/>
</g>
<g>
	<path class="st3" d="M367,263.7v-11.5h2.3l2.7,8.1c0.2,0.8,0.4,1.3,0.5,1.7c0.1-0.4,0.3-1,0.6-1.8l2.7-8h2v11.5h-1.5v-9.6l-3.3,9.6
		h-1.4l-3.3-9.8v9.8H367z"/>
	<path class="st3" d="M380.2,253.9v-1.6h1.4v1.6H380.2z M380.2,263.7v-8.3h1.4v8.3H380.2z"/>
	<path class="st3" d="M383.8,263.7v-8.3h1.3v1.2c0.6-0.9,1.5-1.4,2.6-1.4c0.5,0,1,0.1,1.4,0.3s0.7,0.4,0.9,0.7s0.4,0.6,0.4,1
		c0.1,0.3,0.1,0.7,0.1,1.4v5.1h-1.4v-5c0-0.6-0.1-1-0.2-1.3s-0.3-0.5-0.6-0.7s-0.6-0.3-1-0.3c-0.6,0-1.1,0.2-1.6,0.6
		s-0.7,1.1-0.7,2.2v4.5H383.8z"/>
	<path class="st3" d="M392.7,263.7v-8.3h1.3v1.2c0.6-0.9,1.5-1.4,2.6-1.4c0.5,0,1,0.1,1.4,0.3s0.7,0.4,0.9,0.7s0.4,0.6,0.4,1
		c0.1,0.3,0.1,0.7,0.1,1.4v5.1H398v-5c0-0.6-0.1-1-0.2-1.3s-0.3-0.5-0.6-0.7s-0.6-0.3-1-0.3c-0.6,0-1.1,0.2-1.6,0.6
		s-0.7,1.1-0.7,2.2v4.5H392.7z"/>
	<path class="st3" d="M407.2,261.1l1.5,0.2c-0.2,0.8-0.7,1.5-1.3,2s-1.4,0.7-2.4,0.7c-1.2,0-2.2-0.4-2.9-1.1s-1.1-1.8-1.1-3.1
		c0-1.4,0.4-2.5,1.1-3.2s1.7-1.2,2.8-1.2c1.1,0,2,0.4,2.7,1.1s1.1,1.8,1.1,3.2c0,0.1,0,0.2,0,0.4h-6.2c0.1,0.9,0.3,1.6,0.8,2.1
		s1,0.7,1.7,0.7c0.5,0,1-0.1,1.3-0.4S407,261.7,407.2,261.1z M402.6,258.8h4.6c-0.1-0.7-0.2-1.2-0.5-1.6c-0.4-0.5-1-0.8-1.7-0.8
		c-0.6,0-1.2,0.2-1.6,0.6S402.7,258.1,402.6,258.8z"/>
	<path class="st3" d="M415.9,262.7c-0.5,0.4-1,0.8-1.5,0.9s-1,0.3-1.6,0.3c-0.9,0-1.6-0.2-2.1-0.7s-0.7-1-0.7-1.7
		c0-0.4,0.1-0.8,0.3-1.1s0.4-0.6,0.7-0.8s0.6-0.4,1-0.5c0.3-0.1,0.7-0.1,1.2-0.2c1.1-0.1,2-0.3,2.5-0.5c0-0.2,0-0.3,0-0.4
		c0-0.6-0.1-1-0.4-1.2c-0.4-0.3-0.9-0.5-1.6-0.5c-0.7,0-1.1,0.1-1.5,0.3s-0.5,0.6-0.7,1.2l-1.4-0.2c0.1-0.6,0.3-1.1,0.6-1.4
		s0.7-0.6,1.2-0.8s1.2-0.3,1.9-0.3c0.7,0,1.3,0.1,1.7,0.2s0.8,0.4,1,0.6s0.4,0.6,0.4,1c0,0.2,0.1,0.7,0.1,1.3v1.9
		c0,1.3,0,2.1,0.1,2.5s0.2,0.7,0.4,1h-1.5C416,263.5,415.9,263.1,415.9,262.7z M415.8,259.6c-0.5,0.2-1.3,0.4-2.3,0.5
		c-0.6,0.1-1,0.2-1.2,0.3s-0.4,0.3-0.6,0.5s-0.2,0.4-0.2,0.7c0,0.4,0.1,0.7,0.4,0.9s0.7,0.4,1.2,0.4c0.5,0,1-0.1,1.4-0.4
		s0.7-0.6,0.9-1c0.2-0.3,0.2-0.8,0.2-1.4V259.6z"/>
	<path class="st3" d="M419.4,266.9v-11.5h1.3v1.1c0.3-0.4,0.6-0.7,1-0.9s0.8-0.3,1.4-0.3c0.7,0,1.3,0.2,1.9,0.5s1,0.9,1.2,1.5
		s0.4,1.4,0.4,2.2c0,0.8-0.2,1.6-0.5,2.3s-0.7,1.2-1.3,1.6s-1.2,0.5-1.8,0.5c-0.5,0-0.9-0.1-1.3-0.3s-0.7-0.4-0.9-0.8v4H419.4z
		 M420.6,259.6c0,1.1,0.2,1.9,0.6,2.4s1,0.8,1.6,0.8c0.6,0,1.2-0.3,1.6-0.8s0.7-1.3,0.7-2.5c0-1.1-0.2-1.8-0.7-2.4s-1-0.8-1.6-0.8
		c-0.6,0-1.1,0.3-1.6,0.8S420.6,258.6,420.6,259.6z"/>
	<path class="st3" d="M427.7,259.6c0-1.5,0.4-2.7,1.3-3.4c0.7-0.6,1.6-0.9,2.6-0.9c1.1,0,2.1,0.4,2.8,1.1s1.1,1.8,1.1,3.1
		c0,1.1-0.2,1.9-0.5,2.5s-0.8,1.1-1.4,1.4s-1.3,0.5-2,0.5c-1.2,0-2.1-0.4-2.8-1.1S427.7,261,427.7,259.6z M429.2,259.6
		c0,1.1,0.2,1.9,0.7,2.4s1,0.8,1.8,0.8c0.7,0,1.3-0.3,1.7-0.8s0.7-1.3,0.7-2.4c0-1-0.2-1.8-0.7-2.3s-1-0.8-1.7-0.8
		c-0.7,0-1.3,0.3-1.8,0.8S429.2,258.5,429.2,259.6z"/>
	<path class="st3" d="M437.1,263.7v-11.5h1.4v11.5H437.1z"/>
	<path class="st3" d="M440.7,253.9v-1.6h1.4v1.6H440.7z M440.7,263.7v-8.3h1.4v8.3H440.7z"/>
	<path class="st3" d="M443.7,261.3l1.4-0.2c0.1,0.6,0.3,1,0.7,1.3s0.9,0.4,1.5,0.4c0.6,0,1.1-0.1,1.4-0.4s0.5-0.6,0.5-0.9
		c0-0.3-0.1-0.6-0.4-0.8c-0.2-0.1-0.7-0.3-1.4-0.5c-1-0.3-1.7-0.5-2.1-0.7s-0.7-0.5-0.9-0.8s-0.3-0.7-0.3-1.1c0-0.4,0.1-0.7,0.3-1
		s0.4-0.6,0.7-0.8c0.2-0.2,0.5-0.3,0.9-0.4s0.8-0.2,1.2-0.2c0.7,0,1.2,0.1,1.7,0.3s0.9,0.4,1.1,0.8s0.4,0.7,0.5,1.3l-1.4,0.2
		c-0.1-0.4-0.2-0.8-0.5-1s-0.7-0.4-1.3-0.4c-0.6,0-1.1,0.1-1.4,0.3s-0.4,0.5-0.4,0.8c0,0.2,0.1,0.3,0.2,0.5c0.1,0.2,0.3,0.3,0.5,0.4
		c0.1,0.1,0.6,0.2,1.2,0.4c1,0.3,1.7,0.5,2.1,0.7s0.7,0.4,0.9,0.7s0.3,0.7,0.3,1.2c0,0.5-0.1,0.9-0.4,1.3s-0.7,0.7-1.2,1
		s-1.1,0.3-1.8,0.3c-1.1,0-1.9-0.2-2.5-0.7S443.9,262.2,443.7,261.3z"/>
</g>
<g>
	<path class="st3" d="M367,76.7V65.3h4.3c0.9,0,1.6,0.1,2.1,0.3s0.9,0.6,1.2,1.1s0.4,1,0.4,1.5c0,0.5-0.1,1-0.4,1.4s-0.7,0.8-1.2,1
		c0.7,0.2,1.2,0.5,1.6,1s0.6,1.1,0.6,1.7c0,0.5-0.1,1-0.3,1.5s-0.5,0.8-0.8,1.1s-0.8,0.4-1.3,0.6s-1.1,0.2-1.8,0.2H367z M368.6,70.1
		h2.5c0.7,0,1.2,0,1.4-0.1c0.4-0.1,0.7-0.3,0.9-0.6s0.3-0.6,0.3-1c0-0.4-0.1-0.7-0.3-1s-0.4-0.5-0.8-0.6s-0.9-0.2-1.7-0.2h-2.3V70.1
		z M368.6,75.4h2.9c0.5,0,0.8,0,1-0.1c0.3-0.1,0.6-0.2,0.9-0.3s0.4-0.4,0.6-0.6s0.2-0.6,0.2-1c0-0.4-0.1-0.8-0.3-1.1
		s-0.5-0.5-0.9-0.7s-0.9-0.2-1.7-0.2h-2.6V75.4z"/>
	<path class="st3" d="M377.1,72.6c0-1.5,0.4-2.7,1.3-3.4c0.7-0.6,1.6-0.9,2.6-0.9c1.1,0,2.1,0.4,2.8,1.1s1.1,1.8,1.1,3.1
		c0,1.1-0.2,1.9-0.5,2.5s-0.8,1.1-1.4,1.4s-1.3,0.5-2,0.5c-1.2,0-2.1-0.4-2.8-1.1S377.1,74,377.1,72.6z M378.5,72.6
		c0,1.1,0.2,1.9,0.7,2.4s1,0.8,1.8,0.8c0.7,0,1.3-0.3,1.7-0.8s0.7-1.3,0.7-2.4c0-1-0.2-1.8-0.7-2.3s-1-0.8-1.7-0.8
		c-0.7,0-1.3,0.3-1.8,0.8S378.5,71.5,378.5,72.6z"/>
	<path class="st3" d="M385.9,74.2l1.4-0.2c0.1,0.6,0.3,1,0.7,1.3s0.9,0.4,1.5,0.4c0.6,0,1.1-0.1,1.4-0.4s0.5-0.6,0.5-0.9
		c0-0.3-0.1-0.6-0.4-0.8c-0.2-0.1-0.7-0.3-1.4-0.5c-1-0.3-1.7-0.5-2.1-0.7s-0.7-0.5-0.9-0.8s-0.3-0.7-0.3-1.1c0-0.4,0.1-0.7,0.3-1
		s0.4-0.6,0.7-0.8c0.2-0.2,0.5-0.3,0.9-0.4s0.8-0.2,1.2-0.2c0.7,0,1.2,0.1,1.7,0.3s0.9,0.4,1.1,0.8s0.4,0.7,0.5,1.3l-1.4,0.2
		c-0.1-0.4-0.2-0.8-0.5-1s-0.7-0.4-1.3-0.4c-0.6,0-1.1,0.1-1.4,0.3s-0.4,0.5-0.4,0.8c0,0.2,0.1,0.3,0.2,0.5c0.1,0.2,0.3,0.3,0.5,0.4
		c0.1,0.1,0.6,0.2,1.2,0.4c1,0.3,1.7,0.5,2.1,0.7s0.7,0.4,0.9,0.7s0.3,0.7,0.3,1.2c0,0.5-0.1,0.9-0.4,1.3s-0.7,0.7-1.2,1
		s-1.1,0.3-1.8,0.3c-1.1,0-1.9-0.2-2.5-0.7S386.1,75.1,385.9,74.2z"/>
	<path class="st3" d="M397.6,75.5l0.2,1.2c-0.4,0.1-0.8,0.1-1.1,0.1c-0.5,0-0.9-0.1-1.2-0.2s-0.5-0.4-0.6-0.6s-0.2-0.8-0.2-1.7v-4.8
		h-1v-1.1h1v-2.1l1.4-0.8v2.9h1.4v1.1h-1.4v4.9c0,0.4,0,0.7,0.1,0.8s0.1,0.2,0.2,0.3s0.3,0.1,0.5,0.1
		C397.1,75.5,397.3,75.5,397.6,75.5z"/>
	<path class="st3" d="M398.4,72.6c0-1.5,0.4-2.7,1.3-3.4c0.7-0.6,1.6-0.9,2.6-0.9c1.1,0,2.1,0.4,2.8,1.1s1.1,1.8,1.1,3.1
		c0,1.1-0.2,1.9-0.5,2.5s-0.8,1.1-1.4,1.4s-1.3,0.5-2,0.5c-1.2,0-2.1-0.4-2.8-1.1S398.4,74,398.4,72.6z M399.9,72.6
		c0,1.1,0.2,1.9,0.7,2.4s1,0.8,1.8,0.8c0.7,0,1.3-0.3,1.7-0.8s0.7-1.3,0.7-2.4c0-1-0.2-1.8-0.7-2.3s-1-0.8-1.7-0.8
		c-0.7,0-1.3,0.3-1.8,0.8S399.9,71.5,399.9,72.6z"/>
	<path class="st3" d="M407.8,76.7v-8.3h1.3v1.2c0.6-0.9,1.5-1.4,2.6-1.4c0.5,0,1,0.1,1.4,0.3s0.7,0.4,0.9,0.7s0.4,0.6,0.4,1
		c0.1,0.3,0.1,0.7,0.1,1.4v5.1h-1.4v-5c0-0.6-0.1-1-0.2-1.3s-0.3-0.5-0.6-0.7s-0.6-0.3-1-0.3c-0.6,0-1.1,0.2-1.6,0.6
		s-0.7,1.1-0.7,2.2v4.5H407.8z"/>
</g>
<g>
	<path class="st3" d="M529.4,263.7v-11.5h3.9c0.9,0,1.6,0.1,2,0.2c0.7,0.2,1.2,0.4,1.7,0.8c0.6,0.5,1.1,1.2,1.4,2s0.4,1.7,0.4,2.7
		c0,0.9-0.1,1.6-0.3,2.3s-0.5,1.2-0.8,1.7s-0.7,0.8-1,1s-0.8,0.4-1.4,0.6s-1.1,0.2-1.8,0.2H529.4z M531,262.4h2.4
		c0.8,0,1.3-0.1,1.8-0.2s0.8-0.3,1-0.6c0.4-0.4,0.6-0.8,0.8-1.4s0.3-1.3,0.3-2.2c0-1.2-0.2-2.1-0.6-2.8s-0.9-1.1-1.4-1.3
		c-0.4-0.2-1.1-0.2-2-0.2H531V262.4z"/>
	<path class="st3" d="M546.5,261.1l1.5,0.2c-0.2,0.8-0.7,1.5-1.3,2s-1.4,0.7-2.4,0.7c-1.2,0-2.2-0.4-2.9-1.1s-1.1-1.8-1.1-3.1
		c0-1.4,0.4-2.5,1.1-3.2s1.7-1.2,2.8-1.2c1.1,0,2,0.4,2.7,1.1s1.1,1.8,1.1,3.2c0,0.1,0,0.2,0,0.4h-6.2c0.1,0.9,0.3,1.6,0.8,2.1
		s1,0.7,1.7,0.7c0.5,0,1-0.1,1.3-0.4S546.3,261.6,546.5,261.1z M541.9,258.8h4.6c-0.1-0.7-0.2-1.2-0.5-1.6c-0.4-0.5-1-0.8-1.7-0.8
		c-0.6,0-1.2,0.2-1.6,0.6S541.9,258.1,541.9,258.8z"/>
	<path class="st3" d="M549.7,263.7v-8.3h1.3v1.2c0.6-0.9,1.5-1.4,2.6-1.4c0.5,0,1,0.1,1.4,0.3s0.7,0.4,0.9,0.7s0.4,0.6,0.4,1
		c0.1,0.3,0.1,0.7,0.1,1.4v5.1h-1.4v-5c0-0.6-0.1-1-0.2-1.3s-0.3-0.5-0.6-0.7s-0.6-0.3-1-0.3c-0.6,0-1.1,0.2-1.6,0.6
		s-0.7,1.1-0.7,2.2v4.5H549.7z"/>
	<path class="st3" d="M560.9,263.7l-3.2-8.3h1.5l1.8,5c0.2,0.5,0.4,1.1,0.5,1.7c0.1-0.4,0.3-1,0.5-1.6l1.8-5.1h1.4l-3.1,8.3H560.9z"
		/>
	<path class="st3" d="M572.3,261.1l1.5,0.2c-0.2,0.8-0.7,1.5-1.3,2s-1.4,0.7-2.4,0.7c-1.2,0-2.2-0.4-2.9-1.1s-1.1-1.8-1.1-3.1
		c0-1.4,0.4-2.5,1.1-3.2s1.7-1.2,2.8-1.2c1.1,0,2,0.4,2.7,1.1s1.1,1.8,1.1,3.2c0,0.1,0,0.2,0,0.4h-6.2c0.1,0.9,0.3,1.6,0.8,2.1
		s1,0.7,1.7,0.7c0.5,0,1-0.1,1.3-0.4S572.1,261.6,572.3,261.1z M567.7,258.8h4.6c-0.1-0.7-0.2-1.2-0.5-1.6c-0.4-0.5-1-0.8-1.7-0.8
		c-0.6,0-1.2,0.2-1.6,0.6S567.7,258.1,567.7,258.8z"/>
	<path class="st3" d="M575.5,263.7v-8.3h1.3v1.3c0.3-0.6,0.6-1,0.9-1.2s0.6-0.3,0.9-0.3c0.5,0,1,0.2,1.4,0.5l-0.5,1.3
		c-0.3-0.2-0.7-0.3-1-0.3c-0.3,0-0.6,0.1-0.8,0.3s-0.4,0.4-0.5,0.8c-0.2,0.5-0.2,1-0.2,1.6v4.3H575.5z"/>
</g>
<g>
	<path class="st3" d="M302.1,232.9v-11.5h3.9c0.9,0,1.6,0.1,2,0.2c0.7,0.2,1.2,0.4,1.7,0.8c0.6,0.5,1.1,1.2,1.4,2s0.4,1.7,0.4,2.7
		c0,0.9-0.1,1.6-0.3,2.3s-0.5,1.2-0.8,1.7s-0.7,0.8-1,1s-0.8,0.4-1.4,0.6s-1.1,0.2-1.8,0.2H302.1z M303.6,231.5h2.4
		c0.8,0,1.3-0.1,1.8-0.2s0.8-0.3,1-0.6c0.4-0.4,0.6-0.8,0.8-1.4s0.3-1.3,0.3-2.2c0-1.2-0.2-2.1-0.6-2.8s-0.9-1.1-1.4-1.3
		c-0.4-0.2-1.1-0.2-2-0.2h-2.4V231.5z"/>
	<path class="st3" d="M319.1,230.2l1.5,0.2c-0.2,0.8-0.7,1.5-1.3,2s-1.4,0.7-2.4,0.7c-1.2,0-2.2-0.4-2.9-1.1s-1.1-1.8-1.1-3.1
		c0-1.4,0.4-2.5,1.1-3.2s1.7-1.2,2.8-1.2c1.1,0,2,0.4,2.7,1.1s1.1,1.8,1.1,3.2c0,0.1,0,0.2,0,0.4h-6.2c0.1,0.9,0.3,1.6,0.8,2.1
		s1,0.7,1.7,0.7c0.5,0,1-0.1,1.3-0.4S318.9,230.8,319.1,230.2z M314.5,227.9h4.6c-0.1-0.7-0.2-1.2-0.5-1.6c-0.4-0.5-1-0.8-1.7-0.8
		c-0.6,0-1.2,0.2-1.6,0.6S314.6,227.2,314.5,227.9z"/>
	<path class="st3" d="M325.4,231.6l0.2,1.2c-0.4,0.1-0.8,0.1-1.1,0.1c-0.5,0-0.9-0.1-1.2-0.2s-0.5-0.4-0.6-0.6s-0.2-0.8-0.2-1.7
		v-4.8h-1v-1.1h1v-2.1l1.4-0.8v2.9h1.4v1.1H324v4.9c0,0.4,0,0.7,0.1,0.8s0.1,0.2,0.2,0.3s0.3,0.1,0.5,0.1
		C325,231.7,325.2,231.6,325.4,231.6z"/>
	<path class="st3" d="M326.8,232.9v-8.3h1.3v1.3c0.3-0.6,0.6-1,0.9-1.2s0.6-0.3,0.9-0.3c0.5,0,1,0.2,1.4,0.5l-0.5,1.3
		c-0.3-0.2-0.7-0.3-1-0.3c-0.3,0-0.6,0.1-0.8,0.3s-0.4,0.4-0.5,0.8c-0.2,0.5-0.2,1-0.2,1.6v4.3H326.8z"/>
	<path class="st3" d="M331.6,228.7c0-1.5,0.4-2.7,1.3-3.4c0.7-0.6,1.6-0.9,2.6-0.9c1.1,0,2.1,0.4,2.8,1.1s1.1,1.8,1.1,3.1
		c0,1.1-0.2,1.9-0.5,2.5s-0.8,1.1-1.4,1.4s-1.3,0.5-2,0.5c-1.2,0-2.1-0.4-2.8-1.1S331.6,230.1,331.6,228.7z M333.1,228.7
		c0,1.1,0.2,1.9,0.7,2.4s1,0.8,1.8,0.8c0.7,0,1.3-0.3,1.7-0.8s0.7-1.3,0.7-2.4c0-1-0.2-1.8-0.7-2.3s-1-0.8-1.7-0.8
		c-0.7,0-1.3,0.3-1.8,0.8S333.1,227.7,333.1,228.7z"/>
	<path class="st3" d="M341,223v-1.6h1.4v1.6H341z M341,232.9v-8.3h1.4v8.3H341z"/>
	<path class="st3" d="M347.7,231.6l0.2,1.2c-0.4,0.1-0.8,0.1-1.1,0.1c-0.5,0-0.9-0.1-1.2-0.2s-0.5-0.4-0.6-0.6s-0.2-0.8-0.2-1.7
		v-4.8h-1v-1.1h1v-2.1l1.4-0.8v2.9h1.4v1.1h-1.4v4.9c0,0.4,0,0.7,0.1,0.8s0.1,0.2,0.2,0.3s0.3,0.1,0.5,0.1
		C347.2,231.7,347.4,231.6,347.7,231.6z"/>
</g>
<g>
	<path class="st3" d="M129.7,72.7l1.4-0.1c0.1,0.6,0.2,1,0.5,1.4s0.6,0.7,1.2,0.9s1.1,0.3,1.8,0.3c0.6,0,1.1-0.1,1.5-0.3
		s0.8-0.4,1-0.7c0.2-0.3,0.3-0.6,0.3-1c0-0.4-0.1-0.7-0.3-0.9c-0.2-0.3-0.6-0.5-1-0.7c-0.3-0.1-1-0.3-2-0.6
		c-1.1-0.3-1.8-0.5-2.2-0.7c-0.5-0.3-1-0.6-1.2-1.1c-0.3-0.4-0.4-0.9-0.4-1.4c0-0.6,0.2-1.1,0.5-1.6c0.3-0.5,0.8-0.9,1.4-1.1
		c0.6-0.3,1.3-0.4,2.1-0.4c0.8,0,1.6,0.1,2.2,0.4s1.1,0.7,1.5,1.2s0.5,1.1,0.6,1.8l-1.5,0.1c-0.1-0.7-0.3-1.3-0.8-1.6
		c-0.5-0.4-1.1-0.6-2-0.6c-0.9,0-1.6,0.2-2,0.5s-0.6,0.7-0.6,1.2c0,0.4,0.1,0.8,0.4,1c0.3,0.3,1.1,0.5,2.3,0.8
		c1.2,0.3,2.1,0.5,2.5,0.7c0.7,0.3,1.2,0.7,1.5,1.2c0.3,0.5,0.5,1,0.5,1.6c0,0.6-0.2,1.2-0.5,1.7s-0.9,1-1.5,1.3s-1.4,0.4-2.2,0.4
		c-1,0-1.9-0.2-2.6-0.5s-1.2-0.8-1.6-1.4C129.9,74.2,129.7,73.5,129.7,72.7z"/>
	<path class="st3" d="M143.8,75.1l0.2,1.2c-0.4,0.1-0.8,0.1-1.1,0.1c-0.5,0-0.9-0.1-1.2-0.2s-0.5-0.4-0.6-0.6
		c-0.1-0.3-0.2-0.8-0.2-1.7v-4.8h-1v-1.1h1v-2.1l1.4-0.8v2.9h1.4v1.1h-1.4v4.9c0,0.4,0,0.7,0.1,0.8c0,0.1,0.1,0.2,0.2,0.3
		c0.1,0.1,0.3,0.1,0.5,0.1C143.3,75.2,143.5,75.2,143.8,75.1z"/>
	<path class="st3" d="M145.5,76.4v-1.6h1.6v1.6H145.5z"/>
	<path class="st3" d="M154.1,76.4V64.9h1.5v10.1h5.6v1.4H154.1z"/>
	<path class="st3" d="M162.4,72.3c0-1.5,0.4-2.7,1.3-3.4c0.7-0.6,1.6-0.9,2.6-0.9c1.1,0,2.1,0.4,2.8,1.1c0.7,0.7,1.1,1.8,1.1,3.1
		c0,1.1-0.2,1.9-0.5,2.5c-0.3,0.6-0.8,1.1-1.4,1.4s-1.3,0.5-2,0.5c-1.2,0-2.1-0.4-2.8-1.1C162.8,74.7,162.4,73.7,162.4,72.3z
		 M163.8,72.3c0,1.1,0.2,1.9,0.7,2.4c0.5,0.5,1,0.8,1.8,0.8c0.7,0,1.3-0.3,1.7-0.8s0.7-1.3,0.7-2.4c0-1-0.2-1.8-0.7-2.3
		c-0.5-0.5-1-0.8-1.7-0.8c-0.7,0-1.3,0.3-1.8,0.8C164.1,70.4,163.8,71.2,163.8,72.3z"/>
	<path class="st3" d="M177.3,76.4v-1.2c-0.6,0.9-1.5,1.4-2.6,1.4c-0.5,0-0.9-0.1-1.4-0.3s-0.7-0.4-0.9-0.7c-0.2-0.3-0.4-0.6-0.4-1
		c-0.1-0.3-0.1-0.7-0.1-1.3v-5.1h1.4v4.6c0,0.7,0,1.2,0.1,1.5c0.1,0.4,0.3,0.7,0.6,0.9s0.6,0.3,1.1,0.3s0.8-0.1,1.2-0.3
		c0.4-0.2,0.6-0.5,0.8-0.9c0.2-0.4,0.2-0.9,0.2-1.6v-4.4h1.4v8.3H177.3z"/>
	<path class="st3" d="M180.7,66.6v-1.6h1.4v1.6H180.7z M180.7,76.4v-8.3h1.4v8.3H180.7z"/>
	<path class="st3" d="M183.7,73.9l1.4-0.2c0.1,0.6,0.3,1,0.7,1.3s0.9,0.4,1.5,0.4c0.6,0,1.1-0.1,1.4-0.4c0.3-0.3,0.5-0.6,0.5-0.9
		c0-0.3-0.1-0.6-0.4-0.8c-0.2-0.1-0.7-0.3-1.4-0.5c-1-0.3-1.7-0.5-2.1-0.7c-0.4-0.2-0.7-0.5-0.9-0.8s-0.3-0.7-0.3-1.1
		c0-0.4,0.1-0.7,0.3-1c0.2-0.3,0.4-0.6,0.7-0.8c0.2-0.2,0.5-0.3,0.9-0.4c0.4-0.1,0.8-0.2,1.2-0.2c0.7,0,1.2,0.1,1.7,0.3
		s0.9,0.4,1.1,0.8s0.4,0.7,0.5,1.3l-1.4,0.2c-0.1-0.4-0.2-0.8-0.5-1c-0.3-0.2-0.7-0.4-1.3-0.4c-0.6,0-1.1,0.1-1.4,0.3
		c-0.3,0.2-0.4,0.5-0.4,0.8c0,0.2,0.1,0.3,0.2,0.5c0.1,0.2,0.3,0.3,0.5,0.4c0.1,0.1,0.6,0.2,1.2,0.4c1,0.3,1.7,0.5,2.1,0.7
		c0.4,0.2,0.7,0.4,0.9,0.7c0.2,0.3,0.3,0.7,0.3,1.2c0,0.5-0.1,0.9-0.4,1.3s-0.7,0.7-1.2,1s-1.1,0.3-1.8,0.3c-1.1,0-1.9-0.2-2.5-0.7
		C184.2,75.5,183.9,74.8,183.7,73.9z"/>
</g>
<g>
	<path class="st3" d="M183.3,46.9l1.5,0.4c-0.3,1.2-0.9,2.2-1.7,2.8c-0.8,0.7-1.8,1-3,1c-1.2,0-2.2-0.3-3-0.8
		c-0.8-0.5-1.4-1.2-1.8-2.2c-0.4-1-0.6-2-0.6-3.1c0-1.2,0.2-2.2,0.7-3.1c0.5-0.9,1.1-1.6,1.9-2c0.8-0.5,1.8-0.7,2.8-0.7
		c1.1,0,2.1,0.3,2.9,0.9c0.8,0.6,1.3,1.4,1.6,2.5l-1.5,0.4c-0.3-0.8-0.7-1.4-1.2-1.8c-0.5-0.4-1.1-0.6-1.9-0.6
		c-0.9,0-1.6,0.2-2.2,0.6c-0.6,0.4-1,1-1.2,1.7c-0.2,0.7-0.4,1.4-0.4,2.2c0,1,0.1,1.8,0.4,2.6c0.3,0.7,0.7,1.3,1.3,1.6
		c0.6,0.4,1.2,0.5,1.9,0.5c0.8,0,1.6-0.2,2.2-0.7C182.7,48.6,183.1,47.9,183.3,46.9z"/>
	<path class="st3" d="M186.5,50.9V39.5h1.4v11.5H186.5z"/>
	<path class="st3" d="M195.8,48.2l1.5,0.2c-0.2,0.8-0.7,1.5-1.3,2c-0.6,0.5-1.4,0.7-2.4,0.7c-1.2,0-2.2-0.4-2.9-1.1
		c-0.7-0.7-1.1-1.8-1.1-3.1c0-1.4,0.4-2.5,1.1-3.2c0.7-0.8,1.7-1.2,2.8-1.2c1.1,0,2,0.4,2.7,1.1c0.7,0.8,1.1,1.8,1.1,3.2
		c0,0.1,0,0.2,0,0.4h-6.2c0.1,0.9,0.3,1.6,0.8,2.1c0.5,0.5,1,0.7,1.7,0.7c0.5,0,1-0.1,1.3-0.4C195.3,49.3,195.6,48.8,195.8,48.2z
		 M191.2,46h4.6c-0.1-0.7-0.2-1.2-0.5-1.6c-0.4-0.5-1-0.8-1.7-0.8c-0.6,0-1.2,0.2-1.6,0.6C191.4,44.7,191.2,45.2,191.2,46z"/>
	<path class="st3" d="M201.3,50.9l-3.2-8.3h1.5l1.8,5c0.2,0.5,0.4,1.1,0.5,1.7c0.1-0.4,0.3-1,0.5-1.6l1.8-5.1h1.4l-3.1,8.3H201.3z"
		/>
	<path class="st3" d="M212.7,48.2l1.5,0.2c-0.2,0.8-0.7,1.5-1.3,2s-1.4,0.7-2.4,0.7c-1.2,0-2.2-0.4-2.9-1.1
		c-0.7-0.7-1.1-1.8-1.1-3.1c0-1.4,0.4-2.5,1.1-3.2c0.7-0.8,1.7-1.2,2.8-1.2c1.1,0,2,0.4,2.7,1.1c0.7,0.8,1.1,1.8,1.1,3.2
		c0,0.1,0,0.2,0,0.4H208c0.1,0.9,0.3,1.6,0.8,2.1c0.5,0.5,1,0.7,1.7,0.7c0.5,0,1-0.1,1.3-0.4C212.2,49.3,212.5,48.8,212.7,48.2z
		 M208.1,46h4.6c-0.1-0.7-0.2-1.2-0.5-1.6c-0.4-0.5-1-0.8-1.7-0.8c-0.6,0-1.2,0.2-1.6,0.6C208.3,44.7,208.1,45.2,208.1,46z"/>
	<path class="st3" d="M215.9,50.9V39.5h1.4v11.5H215.9z"/>
	<path class="st3" d="M224.9,49.9c-0.5,0.4-1,0.8-1.5,0.9s-1,0.3-1.6,0.3c-0.9,0-1.6-0.2-2.1-0.7s-0.7-1-0.7-1.7
		c0-0.4,0.1-0.8,0.3-1.1s0.4-0.6,0.7-0.8s0.6-0.4,1-0.5c0.3-0.1,0.7-0.1,1.2-0.2c1.1-0.1,2-0.3,2.5-0.5c0-0.2,0-0.3,0-0.4
		c0-0.6-0.1-1-0.4-1.2c-0.4-0.3-0.9-0.5-1.6-0.5c-0.7,0-1.1,0.1-1.5,0.3c-0.3,0.2-0.5,0.6-0.7,1.2l-1.4-0.2c0.1-0.6,0.3-1.1,0.6-1.4
		c0.3-0.4,0.7-0.6,1.2-0.8s1.2-0.3,1.9-0.3c0.7,0,1.3,0.1,1.7,0.2c0.4,0.2,0.8,0.4,1,0.6c0.2,0.3,0.4,0.6,0.4,1
		c0,0.2,0.1,0.7,0.1,1.3v1.9c0,1.3,0,2.1,0.1,2.5c0.1,0.3,0.2,0.7,0.4,1h-1.5C225,50.6,224.9,50.3,224.9,49.9z M224.7,46.7
		c-0.5,0.2-1.3,0.4-2.3,0.5c-0.6,0.1-1,0.2-1.2,0.3c-0.2,0.1-0.4,0.3-0.6,0.5c-0.1,0.2-0.2,0.4-0.2,0.7c0,0.4,0.1,0.7,0.4,0.9
		s0.7,0.4,1.2,0.4c0.5,0,1-0.1,1.4-0.4c0.4-0.2,0.7-0.6,0.9-1c0.2-0.3,0.2-0.8,0.2-1.4V46.7z"/>
	<path class="st3" d="M228.3,50.9v-8.3h1.3v1.2c0.6-0.9,1.5-1.4,2.6-1.4c0.5,0,1,0.1,1.4,0.3s0.7,0.4,0.9,0.7c0.2,0.3,0.4,0.6,0.4,1
		c0.1,0.3,0.1,0.7,0.1,1.4v5.1h-1.4v-5c0-0.6-0.1-1-0.2-1.3c-0.1-0.3-0.3-0.5-0.6-0.7c-0.3-0.2-0.6-0.3-1-0.3
		c-0.6,0-1.1,0.2-1.6,0.6c-0.4,0.4-0.7,1.1-0.7,2.2v4.5H228.3z"/>
	<path class="st3" d="M242.6,50.9v-1c-0.5,0.8-1.3,1.2-2.3,1.2c-0.7,0-1.3-0.2-1.8-0.5s-1-0.9-1.3-1.5c-0.3-0.7-0.5-1.4-0.5-2.3
		c0-0.8,0.1-1.6,0.4-2.3c0.3-0.7,0.7-1.2,1.2-1.6s1.2-0.5,1.9-0.5c0.5,0,0.9,0.1,1.3,0.3s0.7,0.5,1,0.8v-4.1h1.4v11.5H242.6z
		 M238.2,46.8c0,1.1,0.2,1.9,0.7,2.4c0.4,0.5,1,0.8,1.6,0.8c0.6,0,1.1-0.3,1.6-0.8c0.4-0.5,0.6-1.3,0.6-2.3c0-1.1-0.2-2-0.7-2.5
		s-1-0.8-1.6-0.8c-0.6,0-1.1,0.3-1.6,0.8C238.4,44.9,238.2,45.7,238.2,46.8z"/>
</g>
<g>
	<path class="st3" d="M589.5,72.6l1.5,0.4c-0.3,1.2-0.9,2.2-1.7,2.8c-0.8,0.7-1.8,1-3,1c-1.2,0-2.2-0.3-3-0.8
		c-0.8-0.5-1.4-1.2-1.8-2.2c-0.4-1-0.6-2-0.6-3.1c0-1.2,0.2-2.2,0.7-3.1c0.5-0.9,1.1-1.6,1.9-2c0.8-0.5,1.8-0.7,2.8-0.7
		c1.1,0,2.1,0.3,2.9,0.9c0.8,0.6,1.3,1.4,1.6,2.5l-1.5,0.4c-0.3-0.8-0.7-1.4-1.2-1.8c-0.5-0.4-1.1-0.6-1.9-0.6
		c-0.9,0-1.6,0.2-2.2,0.6c-0.6,0.4-1,1-1.2,1.7c-0.2,0.7-0.4,1.4-0.4,2.2c0,1,0.1,1.8,0.4,2.6c0.3,0.7,0.7,1.3,1.3,1.6
		c0.6,0.4,1.2,0.5,1.9,0.5c0.8,0,1.6-0.2,2.2-0.7C588.8,74.2,589.2,73.5,589.5,72.6z"/>
	<path class="st3" d="M592.7,76.6V65.1h1.4v4.1c0.7-0.8,1.5-1.1,2.5-1.1c0.6,0,1.1,0.1,1.6,0.4s0.8,0.6,1,1c0.2,0.4,0.3,1,0.3,1.9
		v5.3H598v-5.3c0-0.7-0.2-1.2-0.5-1.5s-0.7-0.5-1.3-0.5c-0.4,0-0.8,0.1-1.2,0.3c-0.4,0.2-0.6,0.5-0.8,0.9c-0.2,0.4-0.2,0.9-0.2,1.5
		v4.5H592.7z"/>
	<path class="st3" d="M607,75.6c-0.5,0.4-1,0.8-1.5,0.9c-0.5,0.2-1,0.3-1.6,0.3c-0.9,0-1.6-0.2-2.1-0.7c-0.5-0.4-0.7-1-0.7-1.7
		c0-0.4,0.1-0.8,0.3-1.1c0.2-0.3,0.4-0.6,0.7-0.8c0.3-0.2,0.6-0.4,1-0.5c0.3-0.1,0.7-0.1,1.2-0.2c1.1-0.1,2-0.3,2.5-0.5
		c0-0.2,0-0.3,0-0.4c0-0.6-0.1-1-0.4-1.2c-0.4-0.3-0.9-0.5-1.6-0.5c-0.7,0-1.2,0.1-1.5,0.3c-0.3,0.2-0.5,0.6-0.7,1.2l-1.4-0.2
		c0.1-0.6,0.3-1.1,0.6-1.4c0.3-0.4,0.7-0.6,1.2-0.8c0.5-0.2,1.2-0.3,1.9-0.3c0.7,0,1.3,0.1,1.7,0.2c0.4,0.2,0.8,0.4,1,0.6
		c0.2,0.3,0.4,0.6,0.4,1c0,0.2,0.1,0.7,0.1,1.3v1.9c0,1.3,0,2.1,0.1,2.5c0.1,0.3,0.2,0.7,0.4,1h-1.5C607.1,76.3,607,75.9,607,75.6z
		 M606.9,72.4c-0.5,0.2-1.3,0.4-2.3,0.5c-0.6,0.1-1,0.2-1.2,0.3c-0.2,0.1-0.4,0.3-0.6,0.5c-0.1,0.2-0.2,0.4-0.2,0.7
		c0,0.4,0.1,0.7,0.4,0.9c0.3,0.2,0.7,0.4,1.2,0.4c0.5,0,1-0.1,1.4-0.4c0.4-0.2,0.7-0.6,0.9-1c0.2-0.3,0.2-0.8,0.2-1.4V72.4z"/>
	<path class="st3" d="M610.4,76.6v-8.3h1.3v1.3c0.3-0.6,0.6-1,0.9-1.2s0.6-0.3,0.9-0.3c0.5,0,1,0.2,1.4,0.5l-0.5,1.3
		c-0.3-0.2-0.7-0.3-1-0.3c-0.3,0-0.6,0.1-0.8,0.3c-0.2,0.2-0.4,0.4-0.5,0.8c-0.2,0.5-0.2,1-0.2,1.6v4.3H610.4z"/>
	<path class="st3" d="M615.8,76.6V65.1h1.4v11.5H615.8z"/>
	<path class="st3" d="M618.8,72.4c0-1.5,0.4-2.7,1.3-3.4c0.7-0.6,1.6-0.9,2.6-0.9c1.1,0,2.1,0.4,2.8,1.1c0.7,0.7,1.1,1.8,1.1,3.1
		c0,1.1-0.2,1.9-0.5,2.5c-0.3,0.6-0.8,1.1-1.4,1.4s-1.3,0.5-2,0.5c-1.2,0-2.1-0.4-2.8-1.1C619.2,74.9,618.8,73.8,618.8,72.4z
		 M620.3,72.4c0,1.1,0.2,1.9,0.7,2.4c0.5,0.5,1,0.8,1.8,0.8c0.7,0,1.3-0.3,1.7-0.8s0.7-1.3,0.7-2.4c0-1-0.2-1.8-0.7-2.3
		c-0.5-0.5-1-0.8-1.7-0.8c-0.7,0-1.3,0.3-1.8,0.8C620.5,70.6,620.3,71.4,620.3,72.4z"/>
	<path class="st3" d="M631.3,75.3l0.2,1.2c-0.4,0.1-0.8,0.1-1.1,0.1c-0.5,0-0.9-0.1-1.2-0.2s-0.5-0.4-0.6-0.6
		c-0.1-0.3-0.2-0.8-0.2-1.7v-4.8h-1v-1.1h1v-2.1l1.4-0.8v2.9h1.4v1.1h-1.4v4.9c0,0.4,0,0.7,0.1,0.8c0,0.1,0.1,0.2,0.2,0.3
		c0.1,0.1,0.3,0.1,0.5,0.1C630.8,75.4,631.1,75.4,631.3,75.3z"/>
	<path class="st3" d="M635.8,75.3l0.2,1.2c-0.4,0.1-0.8,0.1-1.1,0.1c-0.5,0-0.9-0.1-1.2-0.2s-0.5-0.4-0.6-0.6
		c-0.1-0.3-0.2-0.8-0.2-1.7v-4.8h-1v-1.1h1v-2.1l1.4-0.8v2.9h1.4v1.1h-1.4v4.9c0,0.4,0,0.7,0.1,0.8c0,0.1,0.1,0.2,0.2,0.3
		c0.1,0.1,0.3,0.1,0.5,0.1C635.3,75.4,635.5,75.4,635.8,75.3z"/>
	<path class="st3" d="M642.8,73.9l1.5,0.2c-0.2,0.8-0.7,1.5-1.3,2s-1.4,0.7-2.4,0.7c-1.2,0-2.2-0.4-2.9-1.1
		c-0.7-0.7-1.1-1.8-1.1-3.1c0-1.4,0.4-2.5,1.1-3.2c0.7-0.8,1.7-1.2,2.8-1.2c1.1,0,2,0.4,2.7,1.1c0.7,0.8,1.1,1.8,1.1,3.2
		c0,0.1,0,0.2,0,0.4h-6.2c0.1,0.9,0.3,1.6,0.8,2.1s1,0.7,1.7,0.7c0.5,0,1-0.1,1.3-0.4C642.3,74.9,642.6,74.5,642.8,73.9z
		 M638.2,71.6h4.6c-0.1-0.7-0.2-1.2-0.5-1.6c-0.4-0.5-1-0.8-1.7-0.8c-0.6,0-1.2,0.2-1.6,0.6C638.5,70.3,638.2,70.9,638.2,71.6z"/>
</g>
<g>
	<path class="st3" d="M185.1,20.4V9h4.3c0.8,0,1.3,0,1.7,0.1c0.6,0.1,1,0.3,1.4,0.5c0.4,0.3,0.7,0.6,0.9,1.1c0.2,0.5,0.3,1,0.3,1.6
		c0,1-0.3,1.8-0.9,2.5c-0.6,0.7-1.7,1-3.4,1h-2.9v4.7H185.1z M186.7,14.4h3c1,0,1.7-0.2,2.1-0.5c0.4-0.4,0.6-0.9,0.6-1.5
		c0-0.5-0.1-0.9-0.4-1.2c-0.2-0.3-0.6-0.6-1-0.7c-0.3-0.1-0.7-0.1-1.4-0.1h-2.9V14.4z"/>
	<path class="st3" d="M195.6,20.4V9h1.4v4.1c0.7-0.8,1.5-1.1,2.5-1.1c0.6,0,1.1,0.1,1.6,0.4s0.8,0.6,1,1c0.2,0.4,0.3,1,0.3,1.9v5.3
		H201v-5.3c0-0.7-0.2-1.2-0.5-1.5s-0.7-0.5-1.3-0.5c-0.4,0-0.8,0.1-1.2,0.3c-0.4,0.2-0.6,0.5-0.8,0.9c-0.2,0.4-0.2,0.9-0.2,1.5v4.5
		H195.6z"/>
	<path class="st3" d="M204.5,10.6V9h1.4v1.6H204.5z M204.5,20.4v-8.3h1.4v8.3H204.5z"/>
	<path class="st3" d="M208.1,20.4V9h1.4v11.5H208.1z"/>
	<path class="st3" d="M217.1,19.4c-0.5,0.4-1,0.8-1.5,0.9c-0.5,0.2-1,0.3-1.6,0.3c-0.9,0-1.6-0.2-2.1-0.7c-0.5-0.4-0.7-1-0.7-1.7
		c0-0.4,0.1-0.8,0.3-1.1c0.2-0.3,0.4-0.6,0.7-0.8c0.3-0.2,0.6-0.4,1-0.5c0.3-0.1,0.7-0.1,1.2-0.2c1.1-0.1,2-0.3,2.5-0.5
		c0-0.2,0-0.3,0-0.4c0-0.6-0.1-1-0.4-1.2c-0.4-0.3-0.9-0.5-1.6-0.5c-0.7,0-1.1,0.1-1.5,0.3c-0.3,0.2-0.5,0.6-0.7,1.2l-1.4-0.2
		c0.1-0.6,0.3-1.1,0.6-1.4c0.3-0.4,0.7-0.6,1.2-0.8c0.5-0.2,1.2-0.3,1.9-0.3c0.7,0,1.3,0.1,1.7,0.2c0.4,0.2,0.8,0.4,1,0.6
		c0.2,0.3,0.4,0.6,0.4,1c0,0.2,0.1,0.7,0.1,1.3v1.9c0,1.3,0,2.1,0.1,2.5c0.1,0.3,0.2,0.7,0.4,1h-1.5
		C217.2,20.1,217.1,19.8,217.1,19.4z M216.9,16.2c-0.5,0.2-1.3,0.4-2.3,0.5c-0.6,0.1-1,0.2-1.2,0.3c-0.2,0.1-0.4,0.3-0.6,0.5
		c-0.1,0.2-0.2,0.4-0.2,0.7c0,0.4,0.1,0.7,0.4,0.9c0.3,0.2,0.7,0.4,1.2,0.4c0.5,0,1-0.1,1.4-0.4c0.4-0.2,0.7-0.6,0.9-1
		c0.2-0.3,0.2-0.8,0.2-1.4V16.2z"/>
	<path class="st3" d="M225.9,20.4v-1c-0.5,0.8-1.3,1.2-2.3,1.2c-0.7,0-1.3-0.2-1.8-0.5s-1-0.9-1.3-1.5c-0.3-0.7-0.5-1.4-0.5-2.3
		c0-0.8,0.1-1.6,0.4-2.3c0.3-0.7,0.7-1.2,1.2-1.6c0.6-0.4,1.2-0.5,1.9-0.5c0.5,0,0.9,0.1,1.3,0.3s0.7,0.5,1,0.8V9h1.4v11.5H225.9z
		 M221.5,16.3c0,1.1,0.2,1.9,0.7,2.4c0.4,0.5,1,0.8,1.6,0.8c0.6,0,1.1-0.3,1.6-0.8c0.4-0.5,0.6-1.3,0.6-2.3c0-1.1-0.2-2-0.7-2.5
		s-1-0.8-1.6-0.8c-0.6,0-1.1,0.3-1.6,0.8C221.7,14.4,221.5,15.2,221.5,16.3z"/>
	<path class="st3" d="M235.1,17.7l1.5,0.2c-0.2,0.8-0.7,1.5-1.3,2s-1.4,0.7-2.4,0.7c-1.2,0-2.2-0.4-2.9-1.1
		c-0.7-0.7-1.1-1.8-1.1-3.1c0-1.4,0.4-2.5,1.1-3.2c0.7-0.8,1.7-1.2,2.8-1.2c1.1,0,2,0.4,2.7,1.1c0.7,0.8,1.1,1.8,1.1,3.2
		c0,0.1,0,0.2,0,0.4h-6.2c0.1,0.9,0.3,1.6,0.8,2.1s1,0.7,1.7,0.7c0.5,0,1-0.1,1.3-0.4C234.6,18.8,234.9,18.3,235.1,17.7z
		 M230.5,15.5h4.6c-0.1-0.7-0.2-1.2-0.5-1.6c-0.4-0.5-1-0.8-1.7-0.8c-0.6,0-1.2,0.2-1.6,0.6C230.8,14.2,230.5,14.7,230.5,15.5z"/>
	<path class="st3" d="M238.3,20.4V9h1.4v11.5H238.3z"/>
	<path class="st3" d="M241.9,23.6V12.1h1.3v1.1c0.3-0.4,0.6-0.7,1-0.9s0.8-0.3,1.4-0.3c0.7,0,1.3,0.2,1.9,0.5c0.5,0.4,1,0.9,1.2,1.5
		s0.4,1.4,0.4,2.2c0,0.8-0.2,1.6-0.5,2.3s-0.7,1.2-1.3,1.6s-1.2,0.5-1.8,0.5c-0.5,0-0.9-0.1-1.3-0.3s-0.7-0.4-0.9-0.8v4H241.9z
		 M243.2,16.3c0,1.1,0.2,1.9,0.6,2.4c0.4,0.5,1,0.8,1.6,0.8c0.6,0,1.2-0.3,1.6-0.8c0.4-0.5,0.7-1.3,0.7-2.5c0-1.1-0.2-1.8-0.7-2.4
		c-0.4-0.5-1-0.8-1.6-0.8c-0.6,0-1.1,0.3-1.6,0.8C243.4,14.4,243.2,15.2,243.2,16.3z"/>
	<path class="st3" d="M250.8,20.4V9h1.4v4.1c0.7-0.8,1.5-1.1,2.5-1.1c0.6,0,1.1,0.1,1.6,0.4s0.8,0.6,1,1c0.2,0.4,0.3,1,0.3,1.9v5.3
		h-1.4v-5.3c0-0.7-0.2-1.2-0.5-1.5s-0.7-0.5-1.3-0.5c-0.4,0-0.8,0.1-1.2,0.3c-0.4,0.2-0.6,0.5-0.8,0.9c-0.2,0.4-0.2,0.9-0.2,1.5v4.5
		H250.8z"/>
	<path class="st3" d="M259.7,10.6V9h1.4v1.6H259.7z M259.7,20.4v-8.3h1.4v8.3H259.7z"/>
	<path class="st3" d="M268.7,19.4c-0.5,0.4-1,0.8-1.5,0.9s-1,0.3-1.6,0.3c-0.9,0-1.6-0.2-2.1-0.7s-0.7-1-0.7-1.7
		c0-0.4,0.1-0.8,0.3-1.1s0.4-0.6,0.7-0.8s0.6-0.4,1-0.5c0.3-0.1,0.7-0.1,1.2-0.2c1.1-0.1,2-0.3,2.5-0.5c0-0.2,0-0.3,0-0.4
		c0-0.6-0.1-1-0.4-1.2c-0.4-0.3-0.9-0.5-1.6-0.5c-0.7,0-1.1,0.1-1.5,0.3c-0.3,0.2-0.5,0.6-0.7,1.2l-1.4-0.2c0.1-0.6,0.3-1.1,0.6-1.4
		c0.3-0.4,0.7-0.6,1.2-0.8s1.2-0.3,1.9-0.3c0.7,0,1.3,0.1,1.7,0.2c0.4,0.2,0.8,0.4,1,0.6c0.2,0.3,0.4,0.6,0.4,1
		c0,0.2,0.1,0.7,0.1,1.3v1.9c0,1.3,0,2.1,0.1,2.5c0.1,0.3,0.2,0.7,0.4,1h-1.5C268.8,20.1,268.7,19.8,268.7,19.4z M268.5,16.2
		c-0.5,0.2-1.3,0.4-2.3,0.5c-0.6,0.1-1,0.2-1.2,0.3c-0.2,0.1-0.4,0.3-0.6,0.5c-0.1,0.2-0.2,0.4-0.2,0.7c0,0.4,0.1,0.7,0.4,0.9
		s0.7,0.4,1.2,0.4c0.5,0,1-0.1,1.4-0.4c0.4-0.2,0.7-0.6,0.9-1c0.2-0.3,0.2-0.8,0.2-1.4V16.2z"/>
</g>
<g>
	<path class="st4" d="M356.4,39.4h2.3v6.2c0,1,0,1.6,0.1,1.9c0.1,0.5,0.3,0.8,0.7,1.1c0.4,0.3,0.9,0.4,1.5,0.4
		c0.7,0,1.2-0.1,1.5-0.4c0.3-0.3,0.5-0.6,0.6-1c0.1-0.4,0.1-1,0.1-1.9v-6.3h2.3v6c0,1.4-0.1,2.3-0.2,2.9c-0.1,0.6-0.4,1-0.7,1.4
		s-0.8,0.7-1.3,0.9S362,51,361.1,51c-1.1,0-1.9-0.1-2.5-0.4c-0.6-0.3-1-0.6-1.3-1c-0.3-0.4-0.5-0.8-0.6-1.3
		c-0.2-0.7-0.2-1.6-0.2-2.9V39.4z"/>
	<path class="st4" d="M375.5,50.8h-2.2v-4.2c0-0.9,0-1.5-0.1-1.7c-0.1-0.3-0.2-0.5-0.5-0.6c-0.2-0.1-0.5-0.2-0.8-0.2
		c-0.4,0-0.7,0.1-1,0.3c-0.3,0.2-0.5,0.5-0.6,0.8c-0.1,0.3-0.2,1-0.2,1.9v3.8h-2.2v-8.3h2v1.2c0.7-0.9,1.6-1.4,2.7-1.4
		c0.5,0,0.9,0.1,1.3,0.3c0.4,0.2,0.7,0.4,0.9,0.7c0.2,0.3,0.3,0.6,0.4,0.9c0.1,0.3,0.1,0.8,0.1,1.5V50.8z"/>
	<path class="st4" d="M377.7,41.4v-2h2.2v2H377.7z M377.7,50.8v-8.3h2.2v8.3H377.7z"/>
	<path class="st4" d="M386,42.5v1.8h-1.5v3.3c0,0.7,0,1.1,0,1.2c0,0.1,0.1,0.2,0.2,0.3c0.1,0.1,0.2,0.1,0.4,0.1
		c0.2,0,0.5-0.1,0.9-0.2l0.2,1.7c-0.5,0.2-1.1,0.3-1.7,0.3c-0.4,0-0.8-0.1-1.1-0.2c-0.3-0.1-0.6-0.3-0.7-0.5s-0.3-0.5-0.3-0.9
		c0-0.3-0.1-0.8-0.1-1.5v-3.6h-1v-1.8h1v-1.6l2.2-1.3v2.9H386z"/>
	<path class="st4" d="M392.3,48.2l2.2,0.4c-0.3,0.8-0.7,1.4-1.3,1.8c-0.6,0.4-1.4,0.6-2.3,0.6c-1.4,0-2.5-0.5-3.2-1.4
		c-0.5-0.8-0.8-1.7-0.8-2.9c0-1.4,0.4-2.5,1.1-3.2c0.7-0.8,1.6-1.2,2.7-1.2c1.2,0,2.2,0.4,2.9,1.2c0.7,0.8,1.1,2.1,1,3.7h-5.5
		c0,0.7,0.2,1.2,0.5,1.5c0.3,0.4,0.8,0.5,1.3,0.5c0.3,0,0.6-0.1,0.9-0.3S392.2,48.6,392.3,48.2z M392.4,46c0-0.6-0.2-1.1-0.5-1.4
		c-0.3-0.3-0.7-0.5-1.1-0.5c-0.5,0-0.9,0.2-1.2,0.5c-0.3,0.3-0.5,0.8-0.5,1.4H392.4z"/>
	<path class="st4" d="M404,50.8h-2v-1.2c-0.3,0.5-0.7,0.8-1.2,1.1s-0.9,0.3-1.4,0.3c-1,0-1.8-0.4-2.4-1.2c-0.7-0.8-1-1.8-1-3.2
		c0-1.4,0.3-2.5,1-3.2c0.7-0.7,1.5-1.1,2.5-1.1c0.9,0,1.7,0.4,2.4,1.2v-4.1h2.2V50.8z M398.1,46.5c0,0.9,0.1,1.5,0.4,1.9
		c0.4,0.6,0.8,0.9,1.5,0.9c0.5,0,0.9-0.2,1.3-0.6c0.4-0.4,0.5-1.1,0.5-1.9c0-1-0.2-1.6-0.5-2.1c-0.3-0.4-0.8-0.6-1.3-0.6
		c-0.5,0-1,0.2-1.3,0.6S398.1,45.7,398.1,46.5z"/>
	<path class="st4" d="M410,47.1l2.2-0.2c0.1,0.8,0.4,1.3,0.8,1.7c0.4,0.4,1,0.5,1.7,0.5c0.7,0,1.3-0.2,1.7-0.5
		c0.4-0.3,0.6-0.7,0.6-1.1c0-0.3-0.1-0.5-0.2-0.7c-0.2-0.2-0.4-0.4-0.8-0.5c-0.3-0.1-0.9-0.3-1.9-0.5c-1.2-0.3-2.1-0.7-2.6-1.1
		c-0.7-0.6-1.1-1.4-1.1-2.3c0-0.6,0.2-1.1,0.5-1.6c0.3-0.5,0.8-0.9,1.4-1.2c0.6-0.3,1.4-0.4,2.3-0.4c1.4,0,2.5,0.3,3.2,0.9
		c0.7,0.6,1.1,1.5,1.1,2.5l-2.3,0.1c-0.1-0.6-0.3-1-0.6-1.3c-0.3-0.3-0.8-0.4-1.5-0.4c-0.7,0-1.2,0.1-1.6,0.4
		c-0.2,0.2-0.4,0.4-0.4,0.7c0,0.3,0.1,0.5,0.3,0.7c0.3,0.2,1,0.5,2.1,0.8s2,0.5,2.5,0.8c0.5,0.3,1,0.7,1.3,1.2s0.5,1.1,0.5,1.8
		c0,0.7-0.2,1.3-0.5,1.8c-0.4,0.6-0.9,1-1.5,1.3c-0.7,0.3-1.5,0.4-2.5,0.4c-1.4,0-2.6-0.3-3.3-1C410.7,49.4,410.2,48.4,410,47.1z"/>
	<path class="st4" d="M425.1,42.5v1.8h-1.5v3.3c0,0.7,0,1.1,0,1.2c0,0.1,0.1,0.2,0.2,0.3c0.1,0.1,0.2,0.1,0.4,0.1
		c0.2,0,0.5-0.1,0.9-0.2l0.2,1.7c-0.5,0.2-1.1,0.3-1.7,0.3c-0.4,0-0.8-0.1-1.1-0.2c-0.3-0.1-0.6-0.3-0.7-0.5s-0.3-0.5-0.3-0.9
		c0-0.3-0.1-0.8-0.1-1.5v-3.6h-1v-1.8h1v-1.6l2.2-1.3v2.9H425.1z"/>
	<path class="st4" d="M428.3,45.1l-2-0.4c0.2-0.8,0.6-1.4,1.2-1.8c0.5-0.4,1.4-0.6,2.4-0.6c1,0,1.7,0.1,2.2,0.3
		c0.5,0.2,0.8,0.5,1,0.9c0.2,0.4,0.3,1,0.3,2l0,2.6c0,0.7,0,1.3,0.1,1.6c0.1,0.3,0.2,0.7,0.4,1.1h-2.2c-0.1-0.1-0.1-0.4-0.2-0.6
		c0-0.1-0.1-0.2-0.1-0.3c-0.4,0.4-0.8,0.6-1.2,0.8c-0.4,0.2-0.9,0.3-1.4,0.3c-0.9,0-1.5-0.2-2-0.7c-0.5-0.5-0.7-1-0.7-1.8
		c0-0.5,0.1-0.9,0.3-1.3c0.2-0.4,0.5-0.6,0.9-0.8c0.4-0.2,1-0.4,1.7-0.5c1-0.2,1.7-0.4,2.1-0.5v-0.2c0-0.4-0.1-0.7-0.3-0.9
		c-0.2-0.2-0.6-0.3-1.2-0.3c-0.4,0-0.7,0.1-0.9,0.2C428.6,44.4,428.4,44.7,428.3,45.1z M431.2,46.9c-0.3,0.1-0.7,0.2-1.3,0.3
		c-0.6,0.1-1,0.3-1.2,0.4c-0.3,0.2-0.4,0.5-0.4,0.8c0,0.3,0.1,0.6,0.3,0.8c0.2,0.2,0.5,0.3,0.9,0.3c0.4,0,0.8-0.1,1.1-0.4
		c0.3-0.2,0.4-0.4,0.5-0.7c0.1-0.2,0.1-0.5,0.1-1.1V46.9z"/>
	<path class="st4" d="M439.3,42.5v1.8h-1.5v3.3c0,0.7,0,1.1,0,1.2c0,0.1,0.1,0.2,0.2,0.3c0.1,0.1,0.2,0.1,0.4,0.1
		c0.2,0,0.5-0.1,0.9-0.2l0.2,1.7c-0.5,0.2-1.1,0.3-1.7,0.3c-0.4,0-0.8-0.1-1.1-0.2c-0.3-0.1-0.6-0.3-0.7-0.5s-0.3-0.5-0.3-0.9
		c0-0.3-0.1-0.8-0.1-1.5v-3.6h-1v-1.8h1v-1.6l2.2-1.3v2.9H439.3z"/>
	<path class="st4" d="M445.6,48.2l2.2,0.4c-0.3,0.8-0.7,1.4-1.3,1.8c-0.6,0.4-1.4,0.6-2.3,0.6c-1.4,0-2.5-0.5-3.2-1.4
		c-0.5-0.8-0.8-1.7-0.8-2.9c0-1.4,0.4-2.5,1.1-3.2c0.7-0.8,1.6-1.2,2.7-1.2c1.2,0,2.2,0.4,2.9,1.2c0.7,0.8,1.1,2.1,1,3.7h-5.5
		c0,0.7,0.2,1.2,0.5,1.5c0.3,0.4,0.8,0.5,1.3,0.5c0.3,0,0.6-0.1,0.9-0.3S445.5,48.6,445.6,48.2z M445.8,46c0-0.6-0.2-1.1-0.5-1.4
		c-0.3-0.3-0.7-0.5-1.1-0.5c-0.5,0-0.9,0.2-1.2,0.5c-0.3,0.3-0.5,0.8-0.5,1.4H445.8z"/>
	<path class="st4" d="M449,48.5l2.2-0.3c0.1,0.4,0.3,0.8,0.6,1c0.3,0.2,0.7,0.3,1.2,0.3c0.6,0,1-0.1,1.3-0.3
		c0.2-0.1,0.3-0.3,0.3-0.6c0-0.2-0.1-0.3-0.2-0.4c-0.1-0.1-0.4-0.2-0.7-0.3c-1.8-0.4-2.9-0.7-3.4-1.1c-0.7-0.4-1-1.1-1-1.9
		c0-0.7,0.3-1.3,0.9-1.8c0.6-0.5,1.4-0.7,2.6-0.7c1.1,0,2,0.2,2.5,0.6c0.6,0.4,0.9,0.9,1.1,1.6l-2.1,0.4c-0.1-0.3-0.3-0.6-0.5-0.7
		c-0.2-0.2-0.6-0.3-1.1-0.3c-0.6,0-1,0.1-1.2,0.2c-0.2,0.1-0.2,0.3-0.2,0.4c0,0.2,0.1,0.3,0.2,0.4c0.2,0.1,0.9,0.4,2.1,0.6
		c1.2,0.3,2,0.6,2.4,1c0.5,0.4,0.7,0.9,0.7,1.6c0,0.8-0.3,1.4-1,2c-0.6,0.5-1.6,0.8-2.8,0.8c-1.1,0-2-0.2-2.7-0.7
		C449.6,49.9,449.2,49.3,449,48.5z"/>
</g>
<g>
	<path class="st3" d="M677.4,76.8V65.4h1.6l6,9v-9h1.5v11.5h-1.6l-6-9v9H677.4z"/>
	<path class="st3" d="M694.3,75.8c-0.5,0.4-1,0.8-1.5,0.9s-1,0.3-1.6,0.3c-0.9,0-1.6-0.2-2.1-0.7s-0.7-1-0.7-1.7
		c0-0.4,0.1-0.8,0.3-1.1s0.4-0.6,0.7-0.8s0.6-0.4,1-0.5c0.3-0.1,0.7-0.1,1.2-0.2c1.1-0.1,2-0.3,2.5-0.5c0-0.2,0-0.3,0-0.4
		c0-0.6-0.1-1-0.4-1.2c-0.4-0.3-0.9-0.5-1.6-0.5c-0.7,0-1.1,0.1-1.5,0.3s-0.5,0.6-0.7,1.2l-1.4-0.2c0.1-0.6,0.3-1.1,0.6-1.4
		s0.7-0.6,1.2-0.8s1.2-0.3,1.9-0.3c0.7,0,1.3,0.1,1.7,0.2s0.8,0.4,1,0.6s0.4,0.6,0.4,1c0,0.2,0.1,0.7,0.1,1.3v1.9
		c0,1.3,0,2.1,0.1,2.5s0.2,0.7,0.4,1h-1.5C694.4,76.5,694.3,76.2,694.3,75.8z M694.1,72.7c-0.5,0.2-1.3,0.4-2.3,0.5
		c-0.6,0.1-1,0.2-1.2,0.3s-0.4,0.3-0.6,0.5s-0.2,0.4-0.2,0.7c0,0.4,0.1,0.7,0.4,0.9s0.7,0.4,1.2,0.4c0.5,0,1-0.1,1.4-0.4
		s0.7-0.6,0.9-1c0.2-0.3,0.2-0.8,0.2-1.4V72.7z"/>
	<path class="st3" d="M697.2,74.4l1.4-0.2c0.1,0.6,0.3,1,0.7,1.3s0.9,0.4,1.5,0.4c0.6,0,1.1-0.1,1.4-0.4s0.5-0.6,0.5-0.9
		c0-0.3-0.1-0.6-0.4-0.8c-0.2-0.1-0.7-0.3-1.4-0.5c-1-0.3-1.7-0.5-2.1-0.7s-0.7-0.5-0.9-0.8s-0.3-0.7-0.3-1.1c0-0.4,0.1-0.7,0.3-1
		s0.4-0.6,0.7-0.8c0.2-0.2,0.5-0.3,0.9-0.4s0.8-0.2,1.2-0.2c0.7,0,1.2,0.1,1.7,0.3s0.9,0.4,1.1,0.8s0.4,0.7,0.5,1.3l-1.4,0.2
		c-0.1-0.4-0.2-0.8-0.5-1s-0.7-0.4-1.3-0.4c-0.6,0-1.1,0.1-1.4,0.3s-0.4,0.5-0.4,0.8c0,0.2,0.1,0.3,0.2,0.5c0.1,0.2,0.3,0.3,0.5,0.4
		c0.1,0.1,0.6,0.2,1.2,0.4c1,0.3,1.7,0.5,2.1,0.7s0.7,0.4,0.9,0.7s0.3,0.7,0.3,1.2c0,0.5-0.1,0.9-0.4,1.3s-0.7,0.7-1.2,1
		s-1.1,0.3-1.8,0.3c-1.1,0-1.9-0.2-2.5-0.7S697.3,75.2,697.2,74.4z"/>
	<path class="st3" d="M705.7,76.8V65.4h1.4v4.1c0.7-0.8,1.5-1.1,2.5-1.1c0.6,0,1.1,0.1,1.6,0.4s0.8,0.6,1,1s0.3,1,0.3,1.9v5.3h-1.4
		v-5.3c0-0.7-0.2-1.2-0.5-1.5s-0.7-0.5-1.3-0.5c-0.4,0-0.8,0.1-1.2,0.3s-0.6,0.5-0.8,0.9s-0.2,0.9-0.2,1.5v4.5H705.7z"/>
	<path class="st3" d="M716.9,76.8l-3.2-8.3h1.5l1.8,5c0.2,0.5,0.4,1.1,0.5,1.7c0.1-0.4,0.3-1,0.5-1.6l1.8-5.1h1.4l-3.1,8.3H716.9z"
		/>
	<path class="st3" d="M722.6,67v-1.6h1.4V67H722.6z M722.6,76.8v-8.3h1.4v8.3H722.6z"/>
	<path class="st3" d="M726.2,76.8V65.4h1.4v11.5H726.2z"/>
	<path class="st3" d="M729.7,76.8V65.4h1.4v11.5H729.7z"/>
	<path class="st3" d="M739,74.2l1.5,0.2c-0.2,0.8-0.7,1.5-1.3,2s-1.4,0.7-2.4,0.7c-1.2,0-2.2-0.4-2.9-1.1s-1.1-1.8-1.1-3.1
		c0-1.4,0.4-2.5,1.1-3.2s1.7-1.2,2.8-1.2c1.1,0,2,0.4,2.7,1.1s1.1,1.8,1.1,3.2c0,0.1,0,0.2,0,0.4h-6.2c0.1,0.9,0.3,1.6,0.8,2.1
		s1,0.7,1.7,0.7c0.5,0,1-0.1,1.3-0.4S738.8,74.8,739,74.2z M734.4,71.9h4.6c-0.1-0.7-0.2-1.2-0.5-1.6c-0.4-0.5-1-0.8-1.7-0.8
		c-0.6,0-1.2,0.2-1.6,0.6S734.4,71.2,734.4,71.9z"/>
</g>
<g>
	<path class="st3" d="M616.4,260.1l1.4-0.1c0.1,0.6,0.2,1,0.5,1.4s0.6,0.7,1.2,0.9s1.1,0.3,1.8,0.3c0.6,0,1.1-0.1,1.5-0.3
		s0.8-0.4,1-0.7s0.3-0.6,0.3-1c0-0.4-0.1-0.7-0.3-0.9s-0.6-0.5-1-0.7c-0.3-0.1-1-0.3-2-0.6s-1.8-0.5-2.2-0.7c-0.5-0.3-1-0.6-1.2-1.1
		s-0.4-0.9-0.4-1.4c0-0.6,0.2-1.1,0.5-1.6s0.8-0.9,1.4-1.1s1.3-0.4,2.1-0.4c0.8,0,1.6,0.1,2.2,0.4s1.1,0.7,1.5,1.2s0.5,1.1,0.6,1.8
		l-1.5,0.1c-0.1-0.7-0.3-1.3-0.8-1.6s-1.1-0.6-2-0.6c-0.9,0-1.6,0.2-2,0.5s-0.6,0.7-0.6,1.2c0,0.4,0.1,0.8,0.4,1
		c0.3,0.3,1.1,0.5,2.3,0.8s2.1,0.5,2.5,0.7c0.7,0.3,1.2,0.7,1.5,1.2s0.5,1,0.5,1.6c0,0.6-0.2,1.2-0.5,1.7s-0.9,1-1.5,1.3
		s-1.4,0.4-2.2,0.4c-1,0-1.9-0.2-2.6-0.5s-1.2-0.8-1.6-1.4S616.5,260.9,616.4,260.1z"/>
	<path class="st3" d="M633.1,261.2l1.5,0.2c-0.2,0.8-0.7,1.5-1.3,2s-1.4,0.7-2.4,0.7c-1.2,0-2.2-0.4-2.9-1.1s-1.1-1.8-1.1-3.1
		c0-1.4,0.4-2.5,1.1-3.2s1.7-1.2,2.8-1.2c1.1,0,2,0.4,2.7,1.1s1.1,1.8,1.1,3.2c0,0.1,0,0.2,0,0.4h-6.2c0.1,0.9,0.3,1.6,0.8,2.1
		s1,0.7,1.7,0.7c0.5,0,1-0.1,1.3-0.4S632.9,261.8,633.1,261.2z M628.5,258.9h4.6c-0.1-0.7-0.2-1.2-0.5-1.6c-0.4-0.5-1-0.8-1.7-0.8
		c-0.6,0-1.2,0.2-1.6,0.6S628.6,258.2,628.5,258.9z"/>
	<path class="st3" d="M641.8,262.8c-0.5,0.4-1,0.8-1.5,0.9s-1,0.3-1.6,0.3c-0.9,0-1.6-0.2-2.1-0.7s-0.7-1-0.7-1.7
		c0-0.4,0.1-0.8,0.3-1.1s0.4-0.6,0.7-0.8s0.6-0.4,1-0.5c0.3-0.1,0.7-0.1,1.2-0.2c1.1-0.1,2-0.3,2.5-0.5c0-0.2,0-0.3,0-0.4
		c0-0.6-0.1-1-0.4-1.2c-0.4-0.3-0.9-0.5-1.6-0.5c-0.7,0-1.1,0.1-1.5,0.3s-0.5,0.6-0.7,1.2l-1.4-0.2c0.1-0.6,0.3-1.1,0.6-1.4
		s0.7-0.6,1.2-0.8s1.2-0.3,1.9-0.3c0.7,0,1.3,0.1,1.7,0.2s0.8,0.4,1,0.6s0.4,0.6,0.4,1c0,0.2,0.1,0.7,0.1,1.3v1.9
		c0,1.3,0,2.1,0.1,2.5s0.2,0.7,0.4,1H642C641.9,263.5,641.8,263.2,641.8,262.8z M641.6,259.7c-0.5,0.2-1.3,0.4-2.3,0.5
		c-0.6,0.1-1,0.2-1.2,0.3s-0.4,0.3-0.6,0.5s-0.2,0.4-0.2,0.7c0,0.4,0.1,0.7,0.4,0.9s0.7,0.4,1.2,0.4c0.5,0,1-0.1,1.4-0.4
		s0.7-0.6,0.9-1c0.2-0.3,0.2-0.8,0.2-1.4V259.7z"/>
	<path class="st3" d="M648.3,262.6l0.2,1.2c-0.4,0.1-0.8,0.1-1.1,0.1c-0.5,0-0.9-0.1-1.2-0.2s-0.5-0.4-0.6-0.6s-0.2-0.8-0.2-1.7
		v-4.8h-1v-1.1h1v-2.1l1.4-0.8v2.9h1.4v1.1h-1.4v4.9c0,0.4,0,0.7,0.1,0.8s0.1,0.2,0.2,0.3s0.3,0.1,0.5,0.1
		C647.9,262.6,648.1,262.6,648.3,262.6z"/>
	<path class="st3" d="M652.8,262.6l0.2,1.2c-0.4,0.1-0.8,0.1-1.1,0.1c-0.5,0-0.9-0.1-1.2-0.2s-0.5-0.4-0.6-0.6s-0.2-0.8-0.2-1.7
		v-4.8h-1v-1.1h1v-2.1l1.4-0.8v2.9h1.4v1.1h-1.4v4.9c0,0.4,0,0.7,0.1,0.8s0.1,0.2,0.2,0.3s0.3,0.1,0.5,0.1
		C652.3,262.6,652.5,262.6,652.8,262.6z"/>
	<path class="st3" d="M654.1,263.8v-11.5h1.4v11.5H654.1z"/>
	<path class="st3" d="M663.4,261.2l1.5,0.2c-0.2,0.8-0.7,1.5-1.3,2s-1.4,0.7-2.4,0.7c-1.2,0-2.2-0.4-2.9-1.1s-1.1-1.8-1.1-3.1
		c0-1.4,0.4-2.5,1.1-3.2s1.7-1.2,2.8-1.2c1.1,0,2,0.4,2.7,1.1s1.1,1.8,1.1,3.2c0,0.1,0,0.2,0,0.4h-6.2c0.1,0.9,0.3,1.6,0.8,2.1
		s1,0.7,1.7,0.7c0.5,0,1-0.1,1.3-0.4S663.2,261.8,663.4,261.2z M658.8,258.9h4.6c-0.1-0.7-0.2-1.2-0.5-1.6c-0.4-0.5-1-0.8-1.7-0.8
		c-0.6,0-1.2,0.2-1.6,0.6S658.8,258.2,658.8,258.9z"/>
</g>
<g>
	<path class="st3" d="M858.9,233.3l4.4-11.5h1.6l4.7,11.5h-1.7l-1.3-3.5h-4.8l-1.3,3.5H858.9z M862.2,228.6h3.9l-1.2-3.2
		c-0.4-1-0.6-1.8-0.8-2.4c-0.1,0.7-0.4,1.5-0.6,2.2L862.2,228.6z"/>
	<path class="st3" d="M876,233.3v-1.2c-0.6,0.9-1.5,1.4-2.6,1.4c-0.5,0-0.9-0.1-1.4-0.3s-0.7-0.4-0.9-0.7s-0.4-0.6-0.4-1
		c-0.1-0.3-0.1-0.7-0.1-1.3V225h1.4v4.6c0,0.7,0,1.2,0.1,1.5c0.1,0.4,0.3,0.7,0.6,0.9s0.6,0.3,1.1,0.3s0.8-0.1,1.2-0.3
		s0.6-0.5,0.8-0.9s0.2-0.9,0.2-1.6V225h1.4v8.3H876z"/>
	<path class="st3" d="M878.9,230.8l1.4-0.2c0.1,0.6,0.3,1,0.7,1.3s0.9,0.4,1.5,0.4c0.6,0,1.1-0.1,1.4-0.4s0.5-0.6,0.5-0.9
		c0-0.3-0.1-0.6-0.4-0.8c-0.2-0.1-0.7-0.3-1.4-0.5c-1-0.3-1.7-0.5-2.1-0.7s-0.7-0.5-0.9-0.8s-0.3-0.7-0.3-1.1c0-0.4,0.1-0.7,0.3-1
		s0.4-0.6,0.7-0.8c0.2-0.2,0.5-0.3,0.9-0.4s0.8-0.2,1.2-0.2c0.7,0,1.2,0.1,1.7,0.3s0.9,0.4,1.1,0.8s0.4,0.7,0.5,1.3l-1.4,0.2
		c-0.1-0.4-0.2-0.8-0.5-1s-0.7-0.4-1.3-0.4c-0.6,0-1.1,0.1-1.4,0.3s-0.4,0.5-0.4,0.8c0,0.2,0.1,0.3,0.2,0.5c0.1,0.2,0.3,0.3,0.5,0.4
		c0.1,0.1,0.6,0.2,1.2,0.4c1,0.3,1.7,0.5,2.1,0.7s0.7,0.4,0.9,0.7s0.3,0.7,0.3,1.2c0,0.5-0.1,0.9-0.4,1.3s-0.7,0.7-1.2,1
		s-1.1,0.3-1.8,0.3c-1.1,0-1.9-0.2-2.5-0.7S879.1,231.7,878.9,230.8z"/>
	<path class="st3" d="M890.6,232l0.2,1.2c-0.4,0.1-0.8,0.1-1.1,0.1c-0.5,0-0.9-0.1-1.2-0.2s-0.5-0.4-0.6-0.6s-0.2-0.8-0.2-1.7v-4.8
		h-1V225h1v-2.1l1.4-0.8v2.9h1.4v1.1h-1.4v4.9c0,0.4,0,0.7,0.1,0.8s0.1,0.2,0.2,0.3s0.3,0.1,0.5,0.1
		C890.1,232.1,890.3,232.1,890.6,232z"/>
	<path class="st3" d="M892,223.4v-1.6h1.4v1.6H892z M892,233.3V225h1.4v8.3H892z"/>
	<path class="st3" d="M895.5,233.3V225h1.3v1.2c0.6-0.9,1.5-1.4,2.6-1.4c0.5,0,1,0.1,1.4,0.3s0.7,0.4,0.9,0.7s0.4,0.6,0.4,1
		c0.1,0.3,0.1,0.7,0.1,1.4v5.1h-1.4v-5c0-0.6-0.1-1-0.2-1.3s-0.3-0.5-0.6-0.7s-0.6-0.3-1-0.3c-0.6,0-1.1,0.2-1.6,0.6
		s-0.7,1.1-0.7,2.2v4.5H895.5z"/>
</g>
<g>
	<rect x="187.3" y="272" class="st5" width="132.8" height="33.3"/>
	<g>
		<path class="st6" d="M193.7,295.7v-13.5h4.4c1.7,0,2.7,0.1,3.2,0.2c0.8,0.2,1.4,0.6,1.9,1.3c0.5,0.7,0.8,1.6,0.8,2.6
			c0,0.8-0.2,1.5-0.5,2.1s-0.7,1-1.1,1.3c-0.5,0.3-0.9,0.5-1.4,0.6c-0.7,0.1-1.6,0.2-2.8,0.2h-1.8v5.1H193.7z M196.4,284.5v3.8h1.5
			c1.1,0,1.8-0.1,2.2-0.2s0.6-0.4,0.9-0.7s0.3-0.7,0.3-1c0-0.5-0.1-0.9-0.4-1.2c-0.3-0.3-0.7-0.5-1.1-0.6c-0.3-0.1-1-0.1-2-0.1
			H196.4z"/>
		<path class="st6" d="M206.2,295.7v-13.5h2.7v13.5H206.2z"/>
		<path class="st6" d="M214.5,295.7v-11.2h-4v-2.3h10.7v2.3h-4v11.2H214.5z"/>
		<path class="st6" d="M226.1,295.7v-11.2h-4v-2.3h10.7v2.3h-4v11.2H226.1z"/>
		<path class="st6" d="M233.8,291.3l2.7-0.3c0.2,0.9,0.5,1.5,1,2c0.5,0.4,1.1,0.6,2,0.6c0.9,0,1.5-0.2,2-0.6
			c0.4-0.4,0.7-0.8,0.7-1.3c0-0.3-0.1-0.6-0.3-0.8c-0.2-0.2-0.5-0.4-1-0.6c-0.3-0.1-1-0.3-2.2-0.6c-1.5-0.4-2.5-0.8-3.1-1.3
			c-0.8-0.7-1.2-1.6-1.2-2.7c0-0.7,0.2-1.3,0.6-1.9c0.4-0.6,1-1.1,1.7-1.4s1.6-0.5,2.7-0.5c1.7,0,3,0.4,3.8,1.1s1.3,1.7,1.3,3
			l-2.7,0.1c-0.1-0.7-0.4-1.2-0.8-1.5s-1-0.5-1.7-0.5c-0.8,0-1.4,0.2-1.9,0.5c-0.3,0.2-0.4,0.5-0.4,0.8c0,0.3,0.1,0.6,0.4,0.8
			c0.3,0.3,1.2,0.6,2.5,0.9c1.3,0.3,2.3,0.6,2.9,1c0.6,0.3,1.1,0.8,1.5,1.4c0.4,0.6,0.5,1.3,0.5,2.2c0,0.8-0.2,1.5-0.6,2.2
			s-1,1.2-1.8,1.5c-0.8,0.3-1.8,0.5-2.9,0.5c-1.7,0-3-0.4-3.9-1.2S234,292.8,233.8,291.3z"/>
		<path class="st6" d="M247.1,282.2h5.4c1.1,0,1.9,0,2.4,0.1c0.5,0.1,1,0.3,1.4,0.6c0.4,0.3,0.8,0.7,1,1.1s0.4,1,0.4,1.6
			c0,0.6-0.2,1.2-0.5,1.7c-0.3,0.5-0.8,0.9-1.4,1.2c0.8,0.2,1.5,0.6,1.9,1.2c0.4,0.6,0.7,1.3,0.7,2c0,0.6-0.1,1.2-0.4,1.8
			s-0.7,1-1.2,1.4c-0.5,0.3-1.1,0.6-1.8,0.6c-0.5,0-1.6,0.1-3.3,0.1h-4.6V282.2z M249.8,284.5v3.1h1.8c1.1,0,1.7,0,2,0
			c0.5-0.1,0.8-0.2,1.1-0.5c0.3-0.3,0.4-0.6,0.4-1.1c0-0.4-0.1-0.8-0.3-1c-0.2-0.3-0.6-0.4-1-0.5c-0.3,0-1,0-2.3,0H249.8z
			 M249.8,289.8v3.6h2.5c1,0,1.6,0,1.9-0.1c0.4-0.1,0.7-0.3,1-0.5c0.3-0.3,0.4-0.7,0.4-1.1c0-0.4-0.1-0.7-0.3-1
			c-0.2-0.3-0.5-0.5-0.9-0.6s-1.2-0.2-2.4-0.2H249.8z"/>
		<path class="st6" d="M260.7,282.2h2.7v7.3c0,1.2,0,1.9,0.1,2.3c0.1,0.6,0.4,1,0.8,1.3c0.4,0.3,1,0.5,1.8,0.5
			c0.8,0,1.4-0.2,1.7-0.5c0.4-0.3,0.6-0.7,0.7-1.2c0.1-0.5,0.1-1.2,0.1-2.3v-7.5h2.7v7.1c0,1.6-0.1,2.8-0.2,3.4
			c-0.1,0.7-0.4,1.2-0.8,1.7c-0.4,0.5-0.9,0.8-1.6,1.1c-0.7,0.3-1.5,0.4-2.6,0.4c-1.3,0-2.3-0.1-2.9-0.4c-0.7-0.3-1.2-0.7-1.6-1.2
			c-0.4-0.5-0.6-1-0.8-1.5c-0.2-0.8-0.3-1.9-0.3-3.4V282.2z"/>
		<path class="st6" d="M274.4,295.7v-13.5h5.7c1.4,0,2.5,0.1,3.1,0.4c0.7,0.2,1.2,0.7,1.6,1.3c0.4,0.6,0.6,1.3,0.6,2.1
			c0,1-0.3,1.8-0.9,2.5c-0.6,0.7-1.5,1.1-2.7,1.2c0.6,0.3,1.1,0.7,1.5,1.1s0.9,1.1,1.6,2.2l1.6,2.6h-3.3l-2-2.9
			c-0.7-1-1.2-1.7-1.4-2s-0.5-0.5-0.8-0.6c-0.3-0.1-0.7-0.2-1.4-0.2h-0.6v5.6H274.4z M277.1,287.9h2c1.3,0,2.1-0.1,2.5-0.2
			c0.3-0.1,0.6-0.3,0.8-0.6c0.2-0.3,0.3-0.6,0.3-1c0-0.5-0.1-0.8-0.4-1.1c-0.2-0.3-0.6-0.5-1-0.5c-0.2,0-0.9,0-2,0h-2.1V287.9z"/>
		<path class="st6" d="M294.2,290.8v-2.3h5.9v5.4c-0.6,0.6-1.4,1-2.5,1.5c-1.1,0.4-2.2,0.6-3.3,0.6c-1.4,0-2.6-0.3-3.7-0.9
			s-1.8-1.4-2.4-2.5c-0.5-1.1-0.8-2.3-0.8-3.6c0-1.4,0.3-2.7,0.9-3.7c0.6-1.1,1.5-1.9,2.6-2.5c0.9-0.4,1.9-0.7,3.2-0.7
			c1.7,0,3,0.4,3.9,1.1c0.9,0.7,1.5,1.7,1.8,2.9l-2.7,0.5c-0.2-0.7-0.5-1.2-1.1-1.6c-0.5-0.4-1.2-0.6-2-0.6c-1.2,0-2.1,0.4-2.8,1.1
			c-0.7,0.8-1.1,1.9-1.1,3.4c0,1.6,0.4,2.8,1.1,3.6c0.7,0.8,1.6,1.2,2.8,1.2c0.6,0,1.1-0.1,1.7-0.3c0.6-0.2,1.1-0.5,1.5-0.8v-1.7
			H294.2z"/>
		<path class="st6" d="M302.6,295.7v-13.5h2.7v5.3h5.3v-5.3h2.7v13.5h-2.7v-5.9h-5.3v5.9H302.6z"/>
	</g>
</g>
<g>
	<path class="st3" d="M298,20.5V9.1h1.5v11.5H298z"/>
	<path class="st3" d="M302,20.5v-8.3h1.3v1.2c0.6-0.9,1.5-1.4,2.6-1.4c0.5,0,1,0.1,1.4,0.3c0.4,0.2,0.7,0.4,0.9,0.7
		c0.2,0.3,0.4,0.6,0.4,1c0.1,0.3,0.1,0.7,0.1,1.4v5.1h-1.4v-5c0-0.6-0.1-1-0.2-1.3c-0.1-0.3-0.3-0.5-0.6-0.7c-0.3-0.2-0.6-0.3-1-0.3
		c-0.6,0-1.1,0.2-1.6,0.6c-0.4,0.4-0.7,1.1-0.7,2.2v4.5H302z"/>
	<path class="st3" d="M316.3,20.5v-1c-0.5,0.8-1.3,1.2-2.3,1.2c-0.7,0-1.3-0.2-1.8-0.5s-1-0.9-1.3-1.5c-0.3-0.7-0.5-1.4-0.5-2.3
		c0-0.8,0.1-1.6,0.4-2.3c0.3-0.7,0.7-1.2,1.2-1.6c0.6-0.4,1.2-0.5,1.9-0.5c0.5,0,0.9,0.1,1.3,0.3s0.7,0.5,1,0.8V9.1h1.4v11.5H316.3z
		 M311.9,16.4c0,1.1,0.2,1.9,0.7,2.4c0.4,0.5,1,0.8,1.6,0.8c0.6,0,1.1-0.3,1.6-0.8c0.4-0.5,0.6-1.3,0.6-2.3c0-1.1-0.2-2-0.7-2.5
		s-1-0.8-1.6-0.8c-0.6,0-1.1,0.3-1.6,0.8C312.1,14.5,311.9,15.3,311.9,16.4z"/>
	<path class="st3" d="M319.8,10.7V9.1h1.4v1.6H319.8z M319.8,20.5v-8.3h1.4v8.3H319.8z"/>
	<path class="st3" d="M328.8,19.5c-0.5,0.4-1,0.8-1.5,0.9c-0.5,0.2-1,0.3-1.6,0.3c-0.9,0-1.6-0.2-2.1-0.7c-0.5-0.4-0.7-1-0.7-1.7
		c0-0.4,0.1-0.8,0.3-1.1c0.2-0.3,0.4-0.6,0.7-0.8c0.3-0.2,0.6-0.4,1-0.5c0.3-0.1,0.7-0.1,1.2-0.2c1.1-0.1,2-0.3,2.5-0.5
		c0-0.2,0-0.3,0-0.4c0-0.6-0.1-1-0.4-1.2c-0.4-0.3-0.9-0.5-1.6-0.5c-0.7,0-1.1,0.1-1.5,0.3c-0.3,0.2-0.5,0.6-0.7,1.2l-1.4-0.2
		c0.1-0.6,0.3-1.1,0.6-1.4c0.3-0.4,0.7-0.6,1.2-0.8c0.5-0.2,1.2-0.3,1.9-0.3c0.7,0,1.3,0.1,1.7,0.2c0.4,0.2,0.8,0.4,1,0.6
		c0.2,0.3,0.4,0.6,0.4,1c0,0.2,0.1,0.7,0.1,1.3V17c0,1.3,0,2.1,0.1,2.5c0.1,0.3,0.2,0.7,0.4,1h-1.5
		C328.9,20.2,328.8,19.9,328.8,19.5z M328.7,16.4c-0.5,0.2-1.3,0.4-2.3,0.5c-0.6,0.1-1,0.2-1.2,0.3c-0.2,0.1-0.4,0.3-0.6,0.5
		c-0.1,0.2-0.2,0.4-0.2,0.7c0,0.4,0.1,0.7,0.4,0.9c0.3,0.2,0.7,0.4,1.2,0.4c0.5,0,1-0.1,1.4-0.4c0.4-0.2,0.7-0.6,0.9-1
		c0.2-0.3,0.2-0.8,0.2-1.4V16.4z"/>
	<path class="st3" d="M332.3,20.5v-8.3h1.3v1.2c0.6-0.9,1.5-1.4,2.6-1.4c0.5,0,1,0.1,1.4,0.3c0.4,0.2,0.7,0.4,0.9,0.7
		c0.2,0.3,0.4,0.6,0.4,1c0.1,0.3,0.1,0.7,0.1,1.4v5.1h-1.4v-5c0-0.6-0.1-1-0.2-1.3c-0.1-0.3-0.3-0.5-0.6-0.7c-0.3-0.2-0.6-0.3-1-0.3
		c-0.6,0-1.1,0.2-1.6,0.6c-0.4,0.4-0.7,1.1-0.7,2.2v4.5H332.3z"/>
	<path class="st3" d="M346.6,19.5c-0.5,0.4-1,0.8-1.5,0.9c-0.5,0.2-1,0.3-1.6,0.3c-0.9,0-1.6-0.2-2.1-0.7c-0.5-0.4-0.7-1-0.7-1.7
		c0-0.4,0.1-0.8,0.3-1.1c0.2-0.3,0.4-0.6,0.7-0.8c0.3-0.2,0.6-0.4,1-0.5c0.3-0.1,0.7-0.1,1.2-0.2c1.1-0.1,2-0.3,2.5-0.5
		c0-0.2,0-0.3,0-0.4c0-0.6-0.1-1-0.4-1.2c-0.4-0.3-0.9-0.5-1.6-0.5c-0.7,0-1.1,0.1-1.5,0.3c-0.3,0.2-0.5,0.6-0.7,1.2l-1.4-0.2
		c0.1-0.6,0.3-1.1,0.6-1.4c0.3-0.4,0.7-0.6,1.2-0.8c0.5-0.2,1.2-0.3,1.9-0.3c0.7,0,1.3,0.1,1.7,0.2c0.4,0.2,0.8,0.4,1,0.6
		c0.2,0.3,0.4,0.6,0.4,1c0,0.2,0.1,0.7,0.1,1.3V17c0,1.3,0,2.1,0.1,2.5c0.1,0.3,0.2,0.7,0.4,1h-1.5
		C346.7,20.2,346.6,19.9,346.6,19.5z M346.5,16.4c-0.5,0.2-1.3,0.4-2.3,0.5c-0.6,0.1-1,0.2-1.2,0.3c-0.2,0.1-0.4,0.3-0.6,0.5
		c-0.1,0.2-0.2,0.4-0.2,0.7c0,0.4,0.1,0.7,0.4,0.9c0.3,0.2,0.7,0.4,1.2,0.4c0.5,0,1-0.1,1.4-0.4c0.4-0.2,0.7-0.6,0.9-1
		c0.2-0.3,0.2-0.8,0.2-1.4V16.4z"/>
	<path class="st3" d="M350.1,23.7V12.2h1.3v1.1c0.3-0.4,0.6-0.7,1-0.9c0.4-0.2,0.8-0.3,1.4-0.3c0.7,0,1.3,0.2,1.9,0.5
		c0.5,0.4,1,0.9,1.2,1.5c0.3,0.7,0.4,1.4,0.4,2.2c0,0.8-0.2,1.6-0.5,2.3s-0.7,1.2-1.3,1.6c-0.6,0.4-1.2,0.5-1.8,0.5
		c-0.5,0-0.9-0.1-1.3-0.3c-0.4-0.2-0.7-0.4-0.9-0.8v4H350.1z M351.4,16.4c0,1.1,0.2,1.9,0.6,2.4c0.4,0.5,1,0.8,1.6,0.8
		c0.6,0,1.2-0.3,1.6-0.8c0.4-0.5,0.7-1.3,0.7-2.5c0-1.1-0.2-1.8-0.7-2.4c-0.4-0.5-1-0.8-1.6-0.8c-0.6,0-1.1,0.3-1.6,0.8
		C351.6,14.5,351.4,15.4,351.4,16.4z"/>
	<path class="st3" d="M358.5,16.4c0-1.5,0.4-2.7,1.3-3.4c0.7-0.6,1.6-0.9,2.6-0.9c1.1,0,2.1,0.4,2.8,1.1c0.7,0.7,1.1,1.8,1.1,3.1
		c0,1.1-0.2,1.9-0.5,2.5c-0.3,0.6-0.8,1.1-1.4,1.4c-0.6,0.3-1.3,0.5-2,0.5c-1.2,0-2.1-0.4-2.8-1.1C358.8,18.8,358.5,17.8,358.5,16.4
		z M359.9,16.4c0,1.1,0.2,1.9,0.7,2.4c0.5,0.5,1,0.8,1.8,0.8c0.7,0,1.3-0.3,1.7-0.8c0.5-0.5,0.7-1.3,0.7-2.4c0-1-0.2-1.8-0.7-2.3
		c-0.5-0.5-1-0.8-1.7-0.8c-0.7,0-1.3,0.3-1.8,0.8C360.1,14.5,359.9,15.3,359.9,16.4z"/>
	<path class="st3" d="M367.8,20.5V9.1h1.4v11.5H367.8z"/>
	<path class="st3" d="M371.4,10.7V9.1h1.4v1.6H371.4z M371.4,20.5v-8.3h1.4v8.3H371.4z"/>
	<path class="st3" d="M374.4,18l1.4-0.2c0.1,0.6,0.3,1,0.7,1.3c0.4,0.3,0.9,0.4,1.5,0.4c0.6,0,1.1-0.1,1.4-0.4
		c0.3-0.3,0.5-0.6,0.5-0.9c0-0.3-0.1-0.6-0.4-0.8c-0.2-0.1-0.7-0.3-1.4-0.5c-1-0.3-1.7-0.5-2.1-0.7c-0.4-0.2-0.7-0.5-0.9-0.8
		c-0.2-0.3-0.3-0.7-0.3-1.1c0-0.4,0.1-0.7,0.3-1c0.2-0.3,0.4-0.6,0.7-0.8c0.2-0.2,0.5-0.3,0.9-0.4c0.4-0.1,0.8-0.2,1.2-0.2
		c0.7,0,1.2,0.1,1.7,0.3s0.9,0.4,1.1,0.8s0.4,0.7,0.5,1.3l-1.4,0.2c-0.1-0.4-0.2-0.8-0.5-1c-0.3-0.2-0.7-0.4-1.3-0.4
		c-0.6,0-1.1,0.1-1.4,0.3c-0.3,0.2-0.4,0.5-0.4,0.8c0,0.2,0.1,0.3,0.2,0.5c0.1,0.2,0.3,0.3,0.5,0.4c0.1,0.1,0.6,0.2,1.2,0.4
		c1,0.3,1.7,0.5,2.1,0.7c0.4,0.2,0.7,0.4,0.9,0.7c0.2,0.3,0.3,0.7,0.3,1.2c0,0.5-0.1,0.9-0.4,1.3s-0.7,0.7-1.2,1s-1.1,0.3-1.8,0.3
		c-1.1,0-1.9-0.2-2.5-0.7C374.9,19.6,374.6,18.9,374.4,18z"/>
</g>
</svg>
