<?xml version="1.0" encoding="utf-8"?>
<!-- Generator: Adobe Illustrator 23.0.0, SVG Export Plug-In . SVG Version: 6.00 Build 0)  -->
<svg version="1.1" id="Layer_1" xmlns="http://www.w3.org/2000/svg" xmlns:xlink="http://www.w3.org/1999/xlink" x="0px" y="0px"
	 viewBox="0 0 440 440" style="enable-background:new 0 0 440 440;" xml:space="preserve">
<style type="text/css">
	.st0{fill:#C32F13;}
	.st1{fill:#FFFFFF;}
</style>
<title>ChoosePgh</title>
<g>
	<g>
		<path class="st0" d="M220,19.6c-110.8,0-200.9,90.1-200.9,200.9c0,110.8,90.1,200.9,200.9,200.9c110.8,0,200.9-90.1,200.9-200.9
			C420.9,109.8,330.8,19.6,220,19.6z M220,411.1c-105.1,0-190.6-85.5-190.6-190.6C29.4,115.5,114.9,30,220,30
			c105.1,0,190.6,85.5,190.6,190.6C410.5,325.6,325,411.1,220,411.1z"/>
	</g>
</g>
<g>
	<g>
		<circle class="st0" cx="220" cy="220.6" r="179.2"/>
	</g>
</g>
<g>
	<g>
		<g>
			<path class="st1" d="M226.7,325.8c-4.5,0-9.1-1.2-13.2-3.8l-8.5-5l6.6-11.2l8.6,5.1c5.6,3.6,12.8,1.9,16.3-3.5
				c1.7-2.6,2.2-5.8,1.5-8.8c-0.7-3-2.5-5.6-5.1-7.3l-10.9-6.9l7-11l10.9,6.9c5.6,3.5,9.4,9,10.9,15.4c1.4,6.4,0.3,13-3.2,18.6
				C242.9,321.7,234.9,325.8,226.7,325.8z"/>
		</g>
	</g>
	<g>
		<g>
			<path class="st1" d="M264,306.4c-4.6,0-9.2-1.3-13.2-3.8l-28.8-18.3l7-11l28.8,18.3c2.6,1.7,5.8,2.2,8.8,1.5
				c3-0.7,5.6-2.5,7.3-5.1c3.4-5.4,1.8-12.7-3.6-16.1l-28.8-18.3l7-11l28.8,18.3c11.5,7.3,14.9,22.6,7.6,34
				c-3.5,5.6-9,9.4-15.4,10.9C267.7,306.3,265.8,306.4,264,306.4z"/>
		</g>
	</g>
	<g>
		<g>
			<path class="st1" d="M301.4,287.1c-4.5,0-9.1-1.2-13.2-3.8l-46.7-29.6l7-11l46.7,29.6c5.4,3.4,12.7,1.8,16.1-3.6
				c3.4-5.4,1.8-12.7-3.6-16.1L261,223l7-11l46.7,29.6c11.5,7.3,14.9,22.5,7.6,34C317.6,283,309.6,287.1,301.4,287.1z"/>
		</g>
	</g>
	<g>
		<g>
			<polygon class="st1" points="352.4,225.3 340.6,219.7 346.9,206.7 359.8,199.4 402.7,199.4 402.7,212.4 363.2,212.4 356.8,216 
							"/>
		</g>
	</g>
	<g>
		<g>
			<path class="st1" d="M103.3,270.5c-4.4,0-8.8-1.2-12.7-3.7l-0.8-0.5c-11-7.1-14.3-21.8-7.2-32.8c3.4-5.3,8.7-9,14.9-10.4
				c6.2-1.4,12.6-0.2,17.9,3.2l0.8,0.5c5.3,3.4,9,8.7,10.4,14.9s0.2,12.6-3.2,17.9C118.8,266.6,111.1,270.5,103.3,270.5z
				 M102.5,235.5c-0.8,0-1.6,0.1-2.3,0.3c-2.8,0.6-5.2,2.3-6.8,4.7c-3.2,5-1.7,11.7,3.3,14.9l0.8,0.5c5,3.2,11.7,1.7,14.9-3.3
				c3.2-5,1.7-11.7-3.3-14.9l-0.8-0.5C106.5,236.1,104.5,235.5,102.5,235.5z"/>
		</g>
	</g>
	<g>
		<g>
			<path class="st1" d="M193.8,326c-4.5,0-8.9-1.3-12.7-3.7l-0.8-0.5c-11.1-7.1-14.3-21.8-7.3-32.8c3.4-5.3,8.7-9,14.9-10.4
				c6.2-1.4,12.6-0.2,17.9,3.2l0.8,0.5c5.3,3.4,9,8.7,10.4,14.9c1.4,6.2,0.2,12.5-3.2,17.9c-3.4,5.3-8.7,9-14.9,10.4
				C197.3,325.8,195.6,326,193.8,326z M193.1,291c-0.8,0-1.6,0.1-2.3,0.3c-2.8,0.6-5.2,2.3-6.8,4.7c-3.2,5-1.7,11.7,3.3,14.9
				l0.8,0.5c5,3.2,11.7,1.7,14.9-3.3c1.5-2.4,2.1-5.3,1.4-8.1c-0.6-2.8-2.3-5.2-4.7-6.8l-0.8-0.5C197.1,291.6,195.1,291,193.1,291z"
				/>
		</g>
	</g>
	<g>
		<g>
			<path class="st1" d="M132.7,289.2c-4.5,0-9-1.2-13-3.8c-11.3-7.2-14.6-22.2-7.4-33.5l8.3-13c3.5-5.5,8.9-9.2,15.2-10.6
				c6.3-1.4,12.8-0.3,18.3,3.2c5.5,3.5,9.2,8.9,10.6,15.2c1.4,6.3,0.2,12.8-3.2,18.3l-8.3,13C148.6,285.3,140.7,289.2,132.7,289.2z
				 M141.1,240.8c-0.8,0-1.6,0.1-2.4,0.3c-2.9,0.6-5.4,2.4-7,4.9l-8.3,13c-1.6,2.5-2.2,5.5-1.5,8.5c0.6,2.9,2.4,5.4,4.9,7.1
				c5.2,3.3,12.2,1.8,15.5-3.4l8.3-13c1.6-2.5,2.1-5.5,1.5-8.5c-0.6-2.9-2.4-5.4-4.9-7v0C145.3,241.4,143.2,240.8,141.1,240.8z"/>
		</g>
	</g>
	<g>
		<g>
			<path class="st1" d="M162.6,308.4c-4.5,0-9-1.2-13-3.8c-11.3-7.2-14.6-22.2-7.4-33.5l13.5-21.2c3.5-5.5,8.9-9.2,15.2-10.6
				c6.3-1.4,12.8-0.3,18.3,3.2l0,0c5.5,3.5,9.2,8.9,10.6,15.2c1.4,6.3,0.2,12.8-3.2,18.3l-13.5,21.2
				C178.5,304.5,170.6,308.4,162.6,308.4z M176.2,251.8c-0.8,0-1.6,0.1-2.4,0.3c-2.9,0.6-5.4,2.4-7,4.9l-13.5,21.2
				c-1.6,2.5-2.2,5.5-1.5,8.5c0.6,2.9,2.4,5.4,4.9,7.1c5.2,3.3,12.2,1.8,15.5-3.4l13.5-21.2c1.6-2.5,2.1-5.5,1.5-8.5
				c-0.6-2.9-2.4-5.4-4.9-7v0C180.4,252.4,178.3,251.8,176.2,251.8z"/>
		</g>
	</g>
	<g>
		<g>
			<polygon class="st1" points="89.8,228.5 84,215.8 75.9,211.9 37.4,211.9 37.4,198.9 78.9,198.9 93.9,206.2 101.6,223.1 			"/>
		</g>
	</g>
	<g>
		<g>
			<path class="st1" d="M338.5,267.7c-4.5,0-9.1-1.2-13.1-3.8L261,223l7-11l64.5,41c5.4,3.4,12.7,1.9,16.2-3.5
				c3.6-5.7,1.9-13-3.6-16.4L247,172h-6.7c-4.4-0.1-8.6,1.4-11.7,4.3l-14.9,14.9c-9.7,9.7-25.6,9.9-35.5,0.4l-0.5-0.5
				c-4.8-4.9-7.4-11.3-7.4-18c0-6.8,2.7-13.1,7.6-17.9l39.3-41.9h14.2c3.5,0,6.4,2.7,6.7,6c0.3,3.6-2.8,6.9-6.7,7
				c-2.9,0-5.7,0-8.6,0l-35.6,38c-2.5,2.5-3.8,5.6-3.9,8.9c0,3.3,1.2,6.4,3.6,8.8c5.1,4.9,12.9,4.8,17.6,0l14.9-15
				c5.7-5.5,13.3-8.4,21.1-8l10.1,0l101.1,63c5.6,3.5,9.5,9,11,15.4c1.5,6.4,0.4,13.1-3.1,18.7C354.8,263.7,346.7,267.7,338.5,267.7
				z"/>
		</g>
	</g>
</g>
</svg>
