<?xml version="1.0" encoding="utf-8"?>
<!-- Generator: Adobe Illustrator 23.0.0, SVG Export Plug-In . SVG Version: 6.00 Build 0)  -->
<svg version="1.1" id="Layer_1" xmlns="http://www.w3.org/2000/svg" xmlns:xlink="http://www.w3.org/1999/xlink" x="0px" y="0px"
	 viewBox="0 0 440 440" style="enable-background:new 0 0 440 440;" xml:space="preserve">
<style type="text/css">
	.st0{fill:#C32F13;}
	.st1{fill:#FFFFFF;stroke:#FFFFFF;stroke-width:5;stroke-miterlimit:10;}
	.st2{fill:#FFFFFF;stroke:#FFFFFF;stroke-width:6;stroke-miterlimit:10;}
	.st3{fill:none;stroke:#50903B;stroke-miterlimit:10;}
</style>
<title>ChoosePgh</title>
<g>
	<g>
		<path class="st0" d="M220,19.6c-110.8,0-200.9,90.1-200.9,200.9c0,110.8,90.1,200.9,200.9,200.9c110.8,0,200.9-90.1,200.9-200.9
			C420.9,109.8,330.8,19.6,220,19.6z M220,411.1c-105.1,0-190.6-85.5-190.6-190.6C29.4,115.5,114.9,30,220,30
			c105.1,0,190.6,85.5,190.6,190.6C410.5,325.6,325,411.1,220,411.1z"/>
	</g>
</g>
<g>
	<g>
		<circle class="st0" cx="220" cy="220.6" r="179.2"/>
	</g>
</g>
<g>
	<g>
		<g>
			<g>
				<polygon class="st0" points="147.8,341.2 181.5,327.7 205.1,355.2 218.6,299.5 232.1,243.9 203.5,236.9 174.8,230 161.3,285.6 
									"/>
			</g>
		</g>
		<g>
			<g>
				<path class="st1" d="M206.7,361.8l-26.1-30.4l-37.3,15l29.2-120.2l63.4,15.4L206.7,361.8z M182.4,323.9l21.1,24.6l24.9-102.3
					l-51.2-12.5L152.3,336L182.4,323.9z"/>
			</g>
		</g>
	</g>
	<g>
		<g>
			<g>
				<polygon class="st0" points="243.2,334.9 266.8,307.2 300.5,320.5 286.5,265 272.6,209.5 244,216.7 215.4,223.8 229.3,279.4 
									"/>
			</g>
		</g>
		<g>
			<g>
				<path class="st1" d="M241.7,341.6l-30.1-120l63.3-15.9l30.1,120l-37.3-14.8L241.7,341.6z M219.2,226.1l25.6,102.1l21-24.8
					l30.1,11.9l-25.6-102.1L219.2,226.1z"/>
			</g>
		</g>
	</g>
	<g>
		<g>
			<g>
				<path class="st0" d="M313.8,175.4c0,6-8.6,11.1-9.7,16.7c-1.2,5.8,4.8,13.8,2.6,19.2c-2.3,5.5-12.1,6.9-15.4,11.7
					c-3.3,4.9-0.8,14.6-5,18.7c-4.1,4.1-13.8,1.7-18.7,5c-4.9,3.3-6.3,13.1-11.7,15.4c-5.4,2.2-13.3-3.7-19.2-2.6
					c-5.7,1.1-10.7,9.7-16.7,9.7c-6,0-11.1-8.6-16.7-9.7c-5.8-1.2-13.8,4.8-19.2,2.6c-5.5-2.3-6.9-12.1-11.7-15.4
					c-4.9-3.3-14.6-0.8-18.7-5c-4.2-4.2-1.7-13.8-5-18.7c-3.3-4.9-13.1-6.3-15.4-11.7c-2.2-5.4,3.7-13.3,2.6-19.2
					c-1.1-5.7-9.7-10.7-9.7-16.7c0-6,8.6-11.1,9.7-16.7c1.2-5.8-4.8-13.8-2.6-19.2c2.3-5.5,12.1-6.9,15.4-11.7
					c3.3-4.9,0.8-14.6,5-18.7c4.2-4.2,13.8-1.7,18.7-5c4.9-3.3,6.3-13.1,11.7-15.4c5.4-2.2,13.3,3.7,19.2,2.6
					c5.7-1.1,10.7-9.7,16.7-9.7c6,0,11.1,8.6,16.7,9.7c5.8,1.2,13.8-4.8,19.2-2.6c5.5,2.3,6.9,12.1,11.7,15.4
					c4.9,3.3,14.6,0.8,18.7,5c4.2,4.2,1.7,13.8,5,18.7c3.3,4.9,13.1,6.3,15.4,11.7c2.2,5.4-3.7,13.3-2.6,19.2
					C305.2,164.3,313.8,169.4,313.8,175.4z"/>
			</g>
		</g>
		<g>
			<g>
				<path class="st2" d="M219.9,272.4c-4.4,0-8-3-11.2-5.7c-2.1-1.8-4.4-3.7-6.2-4c-1.8-0.4-4.8,0.5-7.5,1.4
					c-2.7,0.9-5.5,1.8-8.3,1.8c-1.4,0-2.8-0.2-4-0.7c-4-1.7-6.1-5.8-8-9.5c-1.3-2.5-2.6-5.1-4.2-6.2c-1.6-1.1-4.6-1.3-7.4-1.6
					c-4.1-0.4-8.7-0.7-11.8-3.8c-3-3-3.4-7.7-3.8-11.8c-0.2-2.9-0.5-5.8-1.6-7.4c-1.1-1.6-3.7-2.9-6.2-4.2c-3.7-1.9-7.8-4-9.5-8
					c-1.6-3.9-0.3-8.2,1-12.2c0.9-2.8,1.8-5.6,1.4-7.5c-0.4-1.8-2.2-4-4-6.2c-2.7-3.2-5.7-6.8-5.7-11.2c0-4.4,3-8,5.7-11.2
					c1.8-2.1,3.7-4.4,4-6.2c0.4-1.9-0.5-4.8-1.4-7.5c-1.3-4.1-2.6-8.3-1-12.2c1.7-4,5.8-6.1,9.5-8c2.5-1.3,5.1-2.7,6.2-4.2
					c1.1-1.6,1.3-4.6,1.6-7.4c0.4-4.1,0.7-8.7,3.8-11.8c3-3,7.7-3.4,11.8-3.8c2.9-0.2,5.8-0.5,7.4-1.6c1.6-1.1,2.9-3.7,4.2-6.2
					c1.9-3.7,4-7.8,8-9.5c1.2-0.5,2.5-0.7,3.9-0.7c2.8,0,5.6,0.9,8.3,1.8c2.8,0.9,5.7,1.8,7.5,1.4c1.8-0.4,4-2.2,6.2-4
					c3.2-2.7,6.8-5.7,11.2-5.7c4.4,0,8,3,11.2,5.7c2.1,1.8,4.4,3.7,6.2,4c1.8,0.4,4.8-0.5,7.5-1.4c2.7-0.9,5.5-1.8,8.3-1.8
					c1.4,0,2.8,0.2,4,0.7c4,1.7,6.1,5.8,8,9.5c1.3,2.5,2.7,5.1,4.2,6.2c1.6,1.1,4.6,1.3,7.4,1.6c4.1,0.4,8.7,0.7,11.8,3.8
					c3,3,3.4,7.7,3.8,11.8c0.2,2.9,0.5,5.8,1.6,7.4c1.1,1.6,3.7,2.9,6.2,4.2c3.7,1.9,7.8,4,9.5,8c1.6,3.9,0.3,8.2-1,12.3
					c-0.9,2.7-1.8,5.6-1.4,7.5c0.4,1.8,2.2,4,4,6.2c2.7,3.2,5.7,6.8,5.7,11.2c0,4.4-3,8-5.7,11.2c-1.8,2.1-3.7,4.4-4,6.2
					c-0.4,1.9,0.5,4.8,1.4,7.5c1.3,4.1,2.6,8.3,1,12.3c-1.7,4-5.8,6.1-9.5,8c-2.5,1.3-5.1,2.6-6.2,4.2c-1.1,1.6-1.3,4.6-1.6,7.4
					c-0.3,4.1-0.7,8.7-3.8,11.8c-3,3-7.7,3.4-11.8,3.8c-2.9,0.2-5.8,0.5-7.4,1.6c-1.6,1.1-2.9,3.7-4.2,6.2c-1.9,3.7-4,7.8-8,9.5
					c-1.2,0.5-2.5,0.7-4,0.7c-2.8,0-5.6-0.9-8.3-1.8c-2.8-0.9-5.7-1.8-7.5-1.4c-1.8,0.4-4,2.2-6.2,4
					C227.9,269.3,224.3,272.4,219.9,272.4z M201.6,256.2c0.8,0,1.5,0.1,2.2,0.2c3.4,0.7,6.2,3.1,9,5.4c2.5,2.1,5,4.3,7.1,4.3
					c2.1,0,4.7-2.2,7.1-4.3c2.8-2.3,5.6-4.7,9-5.4c0.7-0.1,1.4-0.2,2.2-0.2c2.8,0,5.7,0.9,8.4,1.8c3.2,1,6.3,1.9,7.9,1.2
					c1.9-0.8,3.4-3.7,4.9-6.6c1.7-3.2,3.4-6.6,6.3-8.5c2.9-2,6.7-2.3,10.4-2.6c3.2-0.3,6.5-0.6,7.9-2c1.4-1.4,1.7-4.7,2-7.9
					c0.3-3.6,0.6-7.4,2.6-10.4c2-2.9,5.3-4.6,8.5-6.3c2.9-1.5,5.8-3,6.6-4.9c0.8-1.8-0.2-4.9-1.2-8c-1.1-3.5-2.3-7.1-1.6-10.6
					c0.7-3.4,3.1-6.2,5.4-9c2.1-2.5,4.3-5,4.3-7.1c0-2.1-2.2-4.7-4.3-7.1c-2.3-2.8-4.7-5.6-5.4-9c-0.7-3.5,0.5-7.1,1.6-10.6
					c1-3,2-6.1,1.2-8c-0.8-1.9-3.7-3.4-6.6-4.9c-3.2-1.7-6.6-3.4-8.5-6.3c-2-2.9-2.3-6.7-2.6-10.4c-0.3-3.2-0.6-6.5-2-7.9
					c-1.4-1.4-4.7-1.7-7.9-2c-3.6-0.3-7.4-0.6-10.4-2.6c-2.9-2-4.6-5.3-6.3-8.5c-1.5-2.9-3-5.8-4.9-6.6c-1.7-0.7-4.8,0.2-7.9,1.2
					c-2.8,0.9-5.6,1.8-8.4,1.8c-0.8,0-1.5-0.1-2.2-0.2c-3.4-0.7-6.2-3.1-9-5.4c-2.5-2.1-5-4.3-7.1-4.3c-2.1,0-4.7,2.2-7.1,4.3
					c-2.8,2.3-5.6,4.7-9,5.4c-0.7,0.1-1.5,0.2-2.2,0.2c-2.8,0-5.7-0.9-8.4-1.8c-3.2-1-6.3-1.9-7.9-1.2c-1.9,0.8-3.4,3.7-4.9,6.6
					c-1.7,3.2-3.4,6.6-6.3,8.5c-2.9,2-6.7,2.3-10.4,2.6c-3.2,0.3-6.5,0.6-7.9,2c-1.4,1.4-1.7,4.7-2,7.9c-0.3,3.6-0.6,7.4-2.6,10.4
					c-2,2.9-5.3,4.6-8.5,6.3c-2.9,1.5-5.8,3-6.6,4.9c-0.7,1.8,0.2,4.9,1.2,7.9c1.1,3.5,2.3,7.1,1.6,10.6c-0.7,3.4-3.1,6.2-5.4,9
					c-2.1,2.5-4.3,5-4.3,7.1c0,2.1,2.2,4.7,4.3,7.1c2.3,2.8,4.7,5.6,5.4,9c0.7,3.5-0.5,7.1-1.6,10.6c-1,3-1.9,6.1-1.2,7.9
					c0.8,1.9,3.7,3.4,6.6,4.9c3.2,1.7,6.6,3.4,8.5,6.3c2,2.9,2.3,6.7,2.6,10.4c0.3,3.2,0.6,6.5,2,7.9c1.4,1.4,4.7,1.7,7.9,2
					c3.6,0.3,7.4,0.6,10.4,2.6c2.9,2,4.6,5.3,6.3,8.5c1.5,2.9,3,5.8,4.9,6.6c1.7,0.7,4.8-0.2,7.9-1.2
					C195.9,257.2,198.8,256.2,201.6,256.2z"/>
			</g>
		</g>
	</g>
	<g>
		<g>
			<g>
				<path class="st3" d="M288.3,175.4c0,37.8-30.6,68.4-68.4,68.4c-37.8,0-68.4-30.6-68.4-68.4c0-37.8,30.6-68.4,68.4-68.4
					C257.7,107,288.3,137.6,288.3,175.4z"/>
			</g>
		</g>
		<g>
			<g>
				<path class="st1" d="M219.9,246.9c-39.4,0-71.5-32.1-71.5-71.5c0-39.4,32.1-71.5,71.5-71.5c39.4,0,71.5,32.1,71.5,71.5
					C291.5,214.8,259.4,246.9,219.9,246.9z M219.9,110.2c-36,0-65.3,29.3-65.3,65.3c0,36,29.3,65.3,65.3,65.3
					c36,0,65.3-29.3,65.3-65.3C285.2,139.4,255.9,110.2,219.9,110.2z"/>
			</g>
		</g>
	</g>
</g>
</svg>
