<?xml version="1.0" encoding="utf-8"?>
<!-- Generator: Adobe Illustrator 23.0.1, SVG Export Plug-In . SVG Version: 6.00 Build 0)  -->
<svg version="1.1" id="Layer_1" xmlns="http://www.w3.org/2000/svg" xmlns:xlink="http://www.w3.org/1999/xlink" x="0px" y="0px"
	 viewBox="0 0 440 440" style="enable-background:new 0 0 440 440;" xml:space="preserve">
<style type="text/css">
	.st0{fill:#F9CA3E;}
	.st1{fill:#FFFFFF;stroke:#FFFFFF;stroke-width:4;stroke-miterlimit:10;}
</style>
<title>ChoosePgh</title>
<g>
	<g>
		<path class="st0" d="M220,19.6c-110.8,0-200.9,90.1-200.9,200.9S109.2,421.4,220,421.4s200.9-90.1,200.9-200.9
			C420.9,109.8,330.8,19.6,220,19.6z M220,411.1c-105.1,0-190.6-85.5-190.6-190.6C29.4,115.5,114.9,30,220,30
			s190.6,85.5,190.6,190.6C410.5,325.6,325,411.1,220,411.1z"/>
	</g>
</g>
<g>
	<g>
		<circle class="st0" cx="220" cy="220.6" r="179.2"/>
	</g>
</g>
<g>
	<path class="st1" d="M279.2,178.2c0-32.6-26.5-59.1-59.1-59.1c-32.6,0-59.1,26.5-59.1,59.1c0,32.6,26.5,59.1,59.1,59.1
		C252.6,237.3,279.2,210.8,279.2,178.2z M220,231.5c-29.4,0-53.3-23.9-53.3-53.3c0-29.4,23.9-53.3,53.3-53.3
		c29.4,0,53.3,23.9,53.3,53.3C273.3,207.6,249.4,231.5,220,231.5z"/>
	<path class="st1" d="M317.6,329.9l-38.5-84.6c0.9-2,1.9-3.7,3.1-4.9c2-2,5.4-3.4,9-4.8c5.1-2,10.4-4.1,13.1-8.8
		c2.7-4.6,1.8-10.2,1-15.6c-0.6-3.9-1.1-7.5-0.4-10.3c0.7-2.7,2.9-5.5,5.3-8.4c3.5-4.3,7.1-8.8,7.1-14.4c0-5.5-3.6-10-7.1-14.4
		c-2.4-3-4.6-5.7-5.3-8.4c-0.8-2.8-0.2-6.5,0.4-10.3c0.8-5.4,1.6-11-1-15.6c-2.7-4.7-8-6.7-13.1-8.8c-3.6-1.4-7-2.7-9-4.8
		c-2-2-3.4-5.4-4.8-9c-2-5.1-4.1-10.4-8.8-13.1c-2.1-1.2-4.6-1.8-7.7-1.8c-2.6,0-5.2,0.4-7.8,0.8c-2.5,0.4-4.9,0.7-7.1,0.7
		c-1.3,0-2.3-0.1-3.3-0.4c-2.7-0.7-5.5-2.9-8.4-5.3c-4.3-3.5-8.8-7.1-14.4-7.1c-5.5,0-10,3.6-14.4,7.1c-3,2.4-5.7,4.6-8.4,5.3
		c-0.9,0.3-2,0.4-3.3,0.4c-2.2,0-4.5-0.4-7.1-0.7c-2.6-0.4-5.3-0.8-7.8-0.8c-3.1,0-5.6,0.6-7.7,1.8c-4.7,2.7-6.7,8-8.8,13.1
		c-1.4,3.6-2.7,7-4.8,9c-2,2-5.4,3.4-9,4.8c-5.1,2-10.4,4.1-13.1,8.8c-2.7,4.6-1.8,10.2-1,15.6c0.6,3.9,1.1,7.5,0.4,10.3
		c-0.7,2.7-2.9,5.5-5.3,8.4c-3.5,4.3-7.1,8.8-7.1,14.4c0,5.5,3.6,10,7.1,14.4c2.4,3,4.6,5.7,5.3,8.4c0.8,2.8,0.2,6.5-0.4,10.3
		c-0.8,5.4-1.6,11,1,15.6c2.7,4.7,8,6.7,13.1,8.8c3.6,1.4,7,2.7,9,4.8c1.3,1.3,2.3,3.1,3.2,5.2l-38.6,84.3c-0.4,1-0.3,2.1,0.3,2.9
		c0.6,0.9,1.7,1.3,2.7,1.2l34-4.4l18.8,28.6c0.5,0.8,1.5,1.3,2.4,1.3c0.1,0,0.1,0,0.2,0c1.1-0.1,2-0.7,2.4-1.7l36.6-80l36.6,80
		c0.4,1,1.4,1.6,2.4,1.7c0.1,0,0.1,0,0.2,0c1,0,1.9-0.5,2.4-1.3l18.8-28.6l34,4.4c1,0.1,2.1-0.3,2.7-1.2
		C317.9,332,318,330.9,317.6,329.9z M180.3,350.6l-17-25.7c-0.6-0.9-1.7-1.4-2.8-1.3l-30.5,4l34.1-74.6c1.7,3.8,3.7,7.4,7.3,9.5
		c2.1,1.2,4.6,1.8,7.7,1.8c2.6,0,5.2-0.4,7.8-0.8c2.5-0.4,4.9-0.7,7.1-0.7c1.3,0,2.3,0.1,3.3,0.4c2.7,0.7,5.5,2.9,8.4,5.3
		c3,2.4,6,4.8,9.4,6.1L180.3,350.6z M220,269.6c-3.5,0-7-2.8-10.7-5.8c-3.3-2.6-6.7-5.3-10.5-6.4c-1.4-0.4-3-0.6-4.8-0.6
		c-2.6,0-5.3,0.4-7.9,0.8c-2.5,0.4-4.8,0.7-7,0.7c-2,0-3.6-0.3-4.8-1c-2.9-1.7-4.5-5.8-6.2-10.2c-1.6-4-3.2-8.1-6.1-11
		c-2.9-2.9-7-4.5-11-6.1c-4.4-1.7-8.5-3.3-10.2-6.2c-1.6-2.8-1-7.2-0.3-11.8c0.6-4.3,1.3-8.7,0.2-12.7c-1-3.8-3.7-7.2-6.4-10.5
		c-3-3.7-5.8-7.2-5.8-10.7c0-3.5,2.8-7,5.8-10.7c2.6-3.3,5.3-6.7,6.4-10.5c1.1-4,0.4-8.4-0.2-12.7c-0.7-4.6-1.3-9,0.3-11.8
		c1.7-2.9,5.8-4.5,10.2-6.2c4-1.6,8.1-3.2,11-6.1c2.9-2.9,4.5-7,6.1-11c1.7-4.4,3.3-8.5,6.2-10.2c1.2-0.7,2.8-1,4.8-1
		c2.1,0,4.5,0.3,7,0.7c2.6,0.4,5.3,0.8,7.9,0.8c1.8,0,3.4-0.2,4.8-0.6c3.8-1,7.2-3.7,10.5-6.4c3.7-3,7.2-5.8,10.7-5.8
		c3.5,0,7,2.8,10.7,5.8c3.3,2.6,6.7,5.3,10.5,6.4c1.4,0.4,3,0.6,4.8,0.6c2.6,0,5.3-0.4,7.9-0.8c2.5-0.4,4.8-0.7,7-0.7
		c2,0,3.6,0.3,4.8,1c2.9,1.7,4.5,5.8,6.2,10.2c1.6,4,3.2,8.1,6.1,11c2.9,2.9,7,4.5,11,6.1c4.4,1.7,8.5,3.3,10.2,6.2
		c1.6,2.8,1,7.2,0.3,11.8c-0.6,4.3-1.3,8.7-0.2,12.7c1,3.8,3.7,7.2,6.4,10.5c3,3.7,5.8,7.2,5.8,10.7c0,3.5-2.8,7-5.8,10.7
		c-2.6,3.3-5.3,6.7-6.4,10.5c-1.1,4-0.4,8.4,0.2,12.7c0.7,4.6,1.3,9-0.3,11.8c-1.7,2.9-5.8,4.5-10.2,6.2c-4,1.6-8.1,3.2-11,6.1
		c-2.9,2.9-4.5,7-6.1,11c-1.7,4.4-3.3,8.5-6.2,10.2c-1.2,0.7-2.8,1-4.8,1c-2.1,0-4.5-0.3-7-0.7c-2.6-0.4-5.3-0.8-7.9-0.8
		c-1.8,0-3.4,0.2-4.8,0.6c-3.8,1-7.2,3.7-10.5,6.4C227,266.8,223.5,269.6,220,269.6z M279.5,323.6c-1.1-0.2-2.2,0.4-2.8,1.3
		l-17,25.7L225,274.5c3.4-1.3,6.4-3.7,9.4-6.1c3-2.4,5.7-4.6,8.4-5.3c0.9-0.3,2-0.4,3.3-0.4c2.2,0,4.5,0.4,7.1,0.7
		c2.6,0.4,5.3,0.8,7.8,0.8c3.1,0,5.6-0.6,7.7-1.8c3.6-2.1,5.7-5.8,7.4-9.8l34,74.8L279.5,323.6z"/>
</g>
</svg>
