<?xml version="1.0" encoding="utf-8"?>
<!-- Generator: Adobe Illustrator 23.0.0, SVG Export Plug-In . SVG Version: 6.00 Build 0)  -->
<svg version="1.1" id="Layer_1" xmlns="http://www.w3.org/2000/svg" xmlns:xlink="http://www.w3.org/1999/xlink" x="0px" y="0px"
	 viewBox="0 0 440 440" style="enable-background:new 0 0 440 440;" xml:space="preserve">
<style type="text/css">
	.st0{fill:#69939F;}
	.st1{fill:#FFFFFF;stroke:#FFFFFF;stroke-width:4;stroke-miterlimit:10;}
</style>
<title>ChoosePgh</title>
<g>
	<g>
		<path class="st0" d="M220,19.6c-110.8,0-200.9,90.1-200.9,200.9S109.2,421.4,220,421.4s200.9-90.1,200.9-200.9
			C420.9,109.8,330.8,19.6,220,19.6z M220,411.1c-105.1,0-190.6-85.5-190.6-190.6C29.4,115.5,114.9,30,220,30
			s190.6,85.5,190.6,190.6C410.5,325.6,325,411.1,220,411.1z"/>
	</g>
</g>
<g>
	<g>
		<circle class="st0" cx="220" cy="220.6" r="179.2"/>
	</g>
</g>
<g id="XMLID_329_">
	<path id="XMLID_574_" class="st1" d="M97.3,329.6h45.4v-81.5H97.3V329.6z M104.3,255.1h31.4v67.5h-31.4V255.1z"/>
	<path id="XMLID_571_" class="st1" d="M161.3,329.6h45.4V191.1h-45.4V329.6z M168.3,198.1h31.4v124.5h-31.4V198.1z"/>
	<path id="XMLID_568_" class="st1" d="M232.3,329.6h45.4V219h-45.4V329.6z M239.3,226h31.4v96.6h-31.4V226z"/>
	<path id="XMLID_564_" class="st1" d="M297.5,329.6h45.4V165.5h-45.4V329.6z M304.5,172.4h31.4v150.1h-31.4V172.4z"/>
	<path id="XMLID_333_" class="st1" d="M305.8,137.9c3.9,3.2,8.9,5.3,14.4,5.3c12.5,0,22.7-10.2,22.7-22.7s-10.2-22.7-22.7-22.7
		c-12.5,0-22.7,10.2-22.7,22.7c0,4.5,1.4,8.7,3.6,12.2l-30.9,24.9c-4-3.7-9.3-6-15.2-6c-8.9,0-16.5,5.1-20.2,12.6l-28.3-15.5
		c0.1-0.8,0.2-1.5,0.2-2.3c0-12.5-10.2-22.7-22.7-22.7s-22.7,10.2-22.7,22.7c0,4.9,1.6,9.4,4.3,13.2l-30.7,26.9
		c-4-3.5-9.2-5.7-14.9-5.7c-12.5,0-22.7,10.2-22.7,22.7s10.2,22.7,22.7,22.7c12.5,0,22.7-10.2,22.7-22.7c0-4.2-1.2-8.2-3.3-11.6
		l31.1-27.3c3.8,2.8,8.4,4.5,13.5,4.5c9.2,0,17.1-5.5,20.7-13.4l28,15.3c-0.2,1.1-0.3,2.2-0.3,3.4c0,12.5,10.2,22.7,22.7,22.7
		c12.5,0,22.7-10.2,22.7-22.7c0-4.1-1.2-8-3.1-11.3L305.8,137.9z M320.2,104.8c8.7,0,15.7,7,15.7,15.7s-7.1,15.7-15.7,15.7
		c-8.7,0-15.7-7-15.7-15.7S311.5,104.8,320.2,104.8z M120,219.1c-8.7,0-15.7-7-15.7-15.7s7.1-15.7,15.7-15.7c8.7,0,15.7,7,15.7,15.7
		S128.6,219.1,120,219.1z M184,162.1c-8.7,0-15.7-7-15.7-15.7s7.1-15.7,15.7-15.7s15.7,7,15.7,15.7S192.7,162.1,184,162.1z
		 M255,190.1c-8.7,0-15.7-7-15.7-15.7s7.1-15.7,15.7-15.7c8.7,0,15.7,7,15.7,15.7S263.7,190.1,255,190.1z"/>
</g>
</svg>
