<?xml version="1.0" encoding="utf-8"?>
<!-- Generator: Adobe Illustrator 23.0.0, SVG Export Plug-In . SVG Version: 6.00 Build 0)  -->
<svg version="1.1" id="Layer_1" xmlns="http://www.w3.org/2000/svg" xmlns:xlink="http://www.w3.org/1999/xlink" x="0px" y="0px"
	 viewBox="0 0 440 440" style="enable-background:new 0 0 440 440;" xml:space="preserve">
<style type="text/css">
	.st0{fill:#F9CA3E;}
	.st1{fill-rule:evenodd;clip-rule:evenodd;fill:#FFFFFF;}
</style>
<title>ChoosePgh</title>
<g>
	<g>
		<path class="st0" d="M220,19.6c-110.8,0-200.9,90.1-200.9,200.9S109.2,421.4,220,421.4s200.9-90.1,200.9-200.9
			C420.9,109.8,330.8,19.6,220,19.6z M220,411.1c-105.1,0-190.6-85.5-190.6-190.6C29.4,115.5,114.9,30,220,30
			s190.6,85.5,190.6,190.6C410.5,325.6,325,411.1,220,411.1z"/>
	</g>
</g>
<g>
	<g>
		<circle class="st0" cx="220" cy="220.6" r="179.2"/>
	</g>
</g>
<g>
	<g>
		<g>
			<path class="st1" d="M182.4,269.1c-9.4-21.6-27.9-37.8-27.9-65.3c0-35.7,29-64.7,64.7-64.7s64.7,29,64.7,64.7
				c0,27.5-18.5,43.7-27.9,65.3c-4,9.3-4.6,13.6-4.6,23.2h-32.2H187C186.9,282.7,186.4,278.4,182.4,269.1L182.4,269.1z M305.4,282.1
				l-20.5-20.5c-2.2-2.2-5.8-2.2-8,0s-2.2,5.8,0,8l20.5,20.5c2.2,2.2,5.8,2.2,8,0C307.7,287.9,307.7,284.3,305.4,282.1L305.4,282.1z
				 M335.5,198.1h-29c-3.1,0-5.7,2.5-5.7,5.7c0,3.1,2.6,5.7,5.7,5.7h29c3.1,0,5.7-2.6,5.7-5.7C341.2,200.7,338.7,198.1,335.5,198.1
				L335.5,198.1z M297.4,117.5L276.9,138c-2.2,2.2-2.2,5.8,0,8s5.8,2.2,8,0l20.5-20.5c2.2-2.2,2.2-5.8,0-8
				C303.2,115.3,299.6,115.3,297.4,117.5L297.4,117.5z M213.5,116.4c0,3.1,2.6,5.7,5.7,5.7c3.1,0,5.7-2.6,5.7-5.7v-29
				c0-3.1-2.6-5.7-5.7-5.7c-3.1,0-5.7,2.6-5.7,5.7V116.4z M153.3,146c2.2,2.2,5.8,2.2,8,0s2.2-5.8,0-8l-20.5-20.5
				c-2.2-2.2-5.8-2.2-8,0s-2.2,5.8,0,8L153.3,146z M153.3,261.6l-20.5,20.5c-2.2,2.2-2.2,5.8,0,8s5.8,2.2,8,0l20.5-20.5
				c2.2-2.2,2.2-5.8,0-8S155.5,259.4,153.3,261.6L153.3,261.6z M102.7,209.5h29c3.1,0,5.7-2.6,5.7-5.7c0-3.1-2.6-5.7-5.7-5.7h-29
				c-3.1,0-5.7,2.5-5.7,5.7C97.1,206.9,99.6,209.5,102.7,209.5L102.7,209.5z M219.1,159.4c-24.5,0-44.4,19.9-44.4,44.4H186
				c0-18.3,14.8-33,33-33L219.1,159.4L219.1,159.4z M239.6,339.8h-40.9c0,9.8,9.1,17.7,20.4,17.7S239.6,349.6,239.6,339.8
				L239.6,339.8z M193.5,319.6h51.3c3.6,0,6.6,3,6.6,6.6l0,0c0,3.6-3,6.6-6.6,6.6h-51.3c-3.6,0-6.6-3-6.6-6.6l0,0
				C186.9,322.5,189.9,319.6,193.5,319.6L193.5,319.6z M193.5,299.4h51.3c3.6,0,6.6,3,6.6,6.6l0,0c0,3.6-3,6.6-6.6,6.6h-51.3
				c-3.6,0-6.6-3-6.6-6.6l0,0C186.9,302.3,189.9,299.4,193.5,299.4L193.5,299.4z M197.6,281h43c0.7-5.3,2.1-10,4.9-16.4
				c2-4.5,4.3-8.9,6.8-13.1c9-15.4,20.2-28.9,20.2-47.7c0-29.5-23.9-53.3-53.3-53.3c-29.5,0-53.3,23.9-53.3,53.3
				c0,18.8,11.1,32.3,20.2,47.7c2.5,4.3,4.8,8.6,6.8,13.1C195.5,270.9,196.9,275.7,197.6,281L197.6,281z"/>
		</g>
	</g>
</g>
</svg>
