<?xml version="1.0" encoding="utf-8"?>
<!-- Generator: Adobe Illustrator 23.0.0, SVG Export Plug-In . SVG Version: 6.00 Build 0)  -->
<svg version="1.1" id="Layer_1" xmlns="http://www.w3.org/2000/svg" xmlns:xlink="http://www.w3.org/1999/xlink" x="0px" y="0px"
	 viewBox="0 0 440 440" style="enable-background:new 0 0 440 440;" xml:space="preserve">
<style type="text/css">
	.st0{fill:#69939F;}
	.st1{fill-rule:evenodd;clip-rule:evenodd;fill:#FFFFFF;stroke:#FFFFFF;stroke-width:4;stroke-miterlimit:10;}
</style>
<title>ChoosePgh</title>
<g>
	<g>
		<path class="st0" d="M220,19.6c-110.8,0-200.9,90.1-200.9,200.9S109.2,421.4,220,421.4s200.9-90.1,200.9-200.9
			C420.9,109.8,330.8,19.6,220,19.6z M220,411.1c-105.1,0-190.6-85.5-190.6-190.6C29.4,115.5,114.9,30,220,30
			s190.6,85.5,190.6,190.6C410.5,325.6,325,411.1,220,411.1z"/>
	</g>
</g>
<g>
	<g>
		<circle class="st0" cx="220" cy="220.6" r="179.2"/>
	</g>
</g>
<path class="st1" d="M125.8,119.3c1.5,0,2.8-0.6,3.8-1.6c1-1,1.6-2.3,1.6-3.8c0-1.5-0.6-2.8-1.6-3.8c-1-1-2.3-1.6-3.8-1.6
	s-2.8,0.6-3.8,1.6c-1,1-1.6,2.3-1.6,3.8c0,1.5,0.6,2.8,1.6,3.8C122.9,118.7,124.3,119.3,125.8,119.3L125.8,119.3z M230.4,315.3H291
	h6.3c1.7,0,3.2,1.4,3.2,3.2v29.4c0,1.7-1.4,3.2-3.2,3.2H142.7c-1.7,0-3.2-1.4-3.2-3.2v-29.4c0-1.7,1.4-3.2,3.2-3.2h6.3h60.6
	c0-64.8,0-114.1,0-178.9c-2.7-1.2-5.1-2.9-7.1-5c-3.8-3.8-6.4-8.8-7.1-14.4H137c-0.5,2-1.6,3.7-3,5.1c-1,1-2.1,1.8-3.4,2.3l-1.1,1.7
	l51.8,78.6h3c1.7,0,3.2,1.4,3.2,3.2c0,8.4-1.7,16.5-4.7,23.8c-3.2,7.6-7.8,14.5-13.5,20.2c-5.7,5.7-12.6,10.4-20.2,13.5
	c-7.3,3-15.4,4.7-23.8,4.7c-8.4,0-16.5-1.7-23.8-4.7c-7.6-3.2-14.5-7.8-20.2-13.5l-0.2-0.2c-5.7-5.7-10.2-12.5-13.3-20l0,0
	c-3-7.3-4.7-15.4-4.7-23.8c0-1.7,1.4-3.2,3.2-3.2h4.1l51.8-78.6l-1.1-1.7l0,0c-1.2-0.6-2.4-1.4-3.3-2.3c-2.1-2.1-3.4-5-3.4-8.3
	c0-3.2,1.3-6.2,3.4-8.3c2.1-2.1,5-3.4,8.3-3.4c3.2,0,6.2,1.3,8.3,3.4c1.4,1.4,2.4,3.2,3,5.1h58.3c0.7-5.6,3.3-10.6,7.1-14.4
	c4.5-4.5,10.7-7.3,17.5-7.3c6.8,0,13.1,2.8,17.5,7.3c3.8,3.8,6.4,8.8,7.1,14.4h58.3c0.5-2,1.6-3.7,3-5.1c2.1-2.1,5-3.4,8.3-3.4
	c3.2,0,6.2,1.3,8.3,3.4c2.1,2.1,3.4,5,3.4,8.3c0,3.2-1.3,6.2-3.4,8.3c-1,1-2.1,1.7-3.3,2.3l0,0l-1.1,1.7l51.8,78.6h4.1
	c1.7,0,3.2,1.4,3.2,3.2c0,8.4-1.7,16.5-4.7,23.8l0,0c-3.1,7.5-7.7,14.3-13.3,20l-0.2,0.2c-5.7,5.7-12.6,10.4-20.2,13.5
	c-7.3,3-15.4,4.7-23.8,4.7c-8.4,0-16.5-1.7-23.8-4.7c-7.6-3.2-14.5-7.8-20.2-13.5c-5.7-5.7-10.4-12.6-13.5-20.2
	c-3-7.3-4.7-15.4-4.7-23.8c0-1.7,1.4-3.2,3.2-3.2h3l51.8-78.6l-1.1-1.7c-1.3-0.6-2.4-1.4-3.4-2.3c-1.4-1.4-2.4-3.1-3-5.1h-58.3
	c-0.7,5.6-3.3,10.6-7.1,14.4c-2.1,2.1-4.5,3.7-7.1,5C230.4,201.2,230.4,250.5,230.4,315.3L230.4,315.3z M224.1,315.3
	c0-64.1,0-112.8,0-176.9c-1.3,0.2-2.7,0.3-4.1,0.3c-1.4,0-2.8-0.1-4.1-0.3c0,64.1,0,112.8,0,176.9H224.1L224.1,315.3z M258.8,211.2
	c0.4,6.4,1.8,12.6,4.1,18.3c2.8,6.8,7,13,12.2,18.2c5.2,5.2,11.3,9.3,18.2,12.2c6.6,2.7,13.8,4.2,21.4,4.2c7.6,0,14.8-1.5,21.4-4.2
	c6.8-2.8,13-7,18.2-12.2l0.2-0.2c5.1-5.1,9.2-11.2,12-18l0,0h0c2.3-5.7,3.8-11.8,4.1-18.2H258.8L258.8,211.2z M362.2,204.9l-48-72.9
	l-0.8,1.1l-47.3,71.7H362.2L362.2,204.9z M314.2,119.3c1.5,0,2.8-0.6,3.8-1.6c1-1,1.6-2.3,1.6-3.8c0-1.5-0.6-2.8-1.6-3.8
	c-1-1-2.3-1.6-3.8-1.6c-1.5,0-2.8,0.6-3.8,1.6c-1,1-1.6,2.3-1.6,3.8c0,1.5,0.6,2.8,1.6,3.8C311.4,118.7,312.7,119.3,314.2,119.3
	L314.2,119.3z M220,131.5c4.8,0,9.2-2,12.4-5.1c3.2-3.2,5.1-7.6,5.1-12.4c0-4.9-2-9.2-5.1-12.4c-3.2-3.2-7.6-5.1-12.4-5.1
	c-4.8,0-9.2,2-12.4,5.1c-3.2,3.2-5.1,7.6-5.1,12.4c0,4.8,2,9.2,5.1,12.4C210.7,129.5,215.1,131.5,220,131.5L220,131.5z M145.8,344.8
	h148.3v-23.1H145.8V344.8L145.8,344.8z M77.7,204.9h96l-47.3-71.7l-0.8-1.1L77.7,204.9L77.7,204.9z M181.1,211.2H69.4
	c0.4,6.4,1.8,12.6,4.1,18.2h0l0,0c2.8,6.8,6.9,12.9,12,18l0.2,0.2c5.2,5.2,11.3,9.3,18.2,12.2c6.6,2.7,13.8,4.2,21.4,4.2
	c7.6,0,14.8-1.5,21.4-4.2c6.8-2.8,13-7,18.2-12.2c5.2-5.2,9.3-11.3,12.2-18.2C179.3,223.8,180.8,217.6,181.1,211.2z"/>
</svg>
