<?xml version="1.0" encoding="utf-8"?>
<!-- Generator: Adobe Illustrator 23.0.0, SVG Export Plug-In . SVG Version: 6.00 Build 0)  -->
<svg version="1.1" id="Layer_1" xmlns="http://www.w3.org/2000/svg" xmlns:xlink="http://www.w3.org/1999/xlink" x="0px" y="0px"
	 viewBox="0 0 440 440" style="enable-background:new 0 0 440 440;" xml:space="preserve">
<style type="text/css">
	.st0{fill:#C32F13;}
	.st1{fill:#FFFFFF;stroke:#FFFFFF;stroke-width:4;stroke-miterlimit:10;}
</style>
<title>ChoosePgh</title>
<g>
	<g>
		<path class="st0" d="M220,19.6c-110.8,0-200.9,90.1-200.9,200.9c0,110.8,90.1,200.9,200.9,200.9c110.8,0,200.9-90.1,200.9-200.9
			C420.9,109.8,330.8,19.6,220,19.6z M220,411.1c-105.1,0-190.6-85.5-190.6-190.6C29.4,115.5,114.9,30,220,30
			c105.1,0,190.6,85.5,190.6,190.6C410.5,325.6,325,411.1,220,411.1z"/>
	</g>
</g>
<g>
	<g>
		<circle class="st0" cx="220" cy="220.6" r="179.2"/>
	</g>
</g>
<g>
	<g>
		<path class="st1" d="M403.4,199C403.4,199,403.4,199,403.4,199L403.4,199c-1.8,0.1-3.5,0.2-5.3,0.2c-0.3,0-0.7,0-1,0
			c0,0-0.1,0-0.1,0c-16.9-0.2-32.7-5-45.8-13c-1.9-1.2-3.8-2.4-5.6-3.8c-9.2-6.7-16.9-15.1-22.4-24.7v-9.6c0-3.7-3-6.7-6.7-6.7h-5.6
			h-6.7h-0.4c-3.7,0-6.7,3-6.7,6.7v10.2c-14.5,25.6-43.7,43.1-77.3,43.1s-62.8-17.5-77.3-43.1v-10.1c0-3.7-3-6.7-6.7-6.7h-0.4h-5.3
			h-1.4h-5.6c-3.7,0-6.7,3-6.7,6.7v9.6c-5.4,9.3-12.8,17.5-21.7,24.2c-2.1,1.5-4.2,3-6.5,4.3c-13.1,8-28.8,12.8-45.7,12.9
			c0,0-0.1,0-0.1,0c-0.3,0-0.7,0-1,0c-1.8,0-3.6,0-5.3-0.2v0c0,0,0,0,0,0v6.5c0,0,0,0,0,0v0c1.8,0.1,3.5,0.1,5.3,0.1
			c0.3,0,0.6,0,0.9,0c0.1,0,0.2,0,0.3,0c5.4-0.1,10.6-0.5,15.7-1.4v33.6H42.9c-0.1,0-0.2,0-0.2,0c-3.6,0.1-6.5,3.1-6.5,6.7v14.3
			c0,3.7,3,6.7,6.7,6.7h73.6v26.7c0,3.7,3,6.7,6.7,6.7h12.6c3.7,0,6.7-3,6.7-6.7v-26.7h154.6v26.7c0,3.7,3,6.7,6.7,6.7h12.6
			c3.7,0,6.7-3,6.7-6.7v-26.7h73.6c3.7,0,6.7-3,6.7-6.7v-7.2v-7.2c0-3.6-2.9-6.6-6.5-6.7c-0.1,0-0.2,0-0.2,0h-15.6v-33.6
			c5.1,0.9,10.4,1.4,15.8,1.4c0,0,0,0,0,0c0.4,0,0.7,0,1.1,0c1.8,0,3.6,0,5.3-0.1v0c0,0,0,0,0,0V199z M336.9,183.8
			c2.1,1.7,4.2,3.4,6.5,4.9c0.4,0.3,0.9,0.6,1.3,0.9v48.1h-21.6v-68.4C327.1,174.7,331.7,179.5,336.9,183.8z M308.9,147.8h7.5
			c0.1,0,0.3,0.1,0.3,0.2v89.7h-13.1v-77.8v-11.9c0-0.1,0.1-0.2,0.3-0.2H308.9z M297.1,170v67.7h-19.9v-48.2
			C284.9,184.1,291.6,177.5,297.1,170z M270.7,193.8C270.7,193.8,270.7,193.8,270.7,193.8l0,43.9h-29.7v-32.2c0,0,0,0,0,0
			C251.8,203.2,261.8,199.2,270.7,193.8z M234.6,206.7v31.1h-29.7v-31.1c4.8,0.7,9.8,1.1,14.8,1.1
			C224.8,207.7,229.8,207.4,234.6,206.7z M198.5,205.5v32.2h-29.7v-43.9C177.8,199.2,187.8,203.2,198.5,205.5
			C198.5,205.5,198.5,205.5,198.5,205.5z M162.4,189.6C162.4,189.6,162.4,189.6,162.4,189.6l0,48.2h-19.9V170
			C148,177.4,154.7,184,162.4,189.6z M135.8,147.8c0.1,0,0.2,0.1,0.2,0.2v11.8v77.8h-13.1v-89.7c0-0.1,0.1-0.2,0.2-0.2h7.5H135.8z
			 M96.2,188.7c2.2-1.5,4.4-3.2,6.5-4.9c5.2-4.3,9.8-9.2,13.8-14.5v68.4H94.8v-48C95.3,189.4,95.8,189.1,96.2,188.7z M64.8,202.8
			c0.5-0.1,0.9-0.2,1.4-0.4c2.2-0.6,4.3-1.2,6.5-1.9c5.5-1.9,10.8-4.2,15.7-6.9v44.1H64.8V202.8z M136,292.2c0,0.1-0.1,0.2-0.2,0.2
			h-12.6c-0.1,0-0.2-0.1-0.2-0.2v-26.7H136V292.2z M316.6,292.2c0,0.1-0.1,0.2-0.3,0.2h-12.6c-0.1,0-0.3-0.1-0.3-0.2v-26.7h13.1
			V292.2z M396.9,244.4v7.2v7.2c0,0.1-0.1,0.2-0.2,0.2h-73.6h-6.5h-13.1h-6.5H142.5H136h-13.1h-6.5H42.9c-0.1,0-0.2-0.1-0.2-0.2
			v-14.3c0-0.1,0.1-0.3,0.2-0.3h73.6h6.5H136h6.5h154.6h6.5h13.1h6.5h73.6C396.8,244.2,396.9,244.3,396.9,244.4z M351.1,237.7v-44.2
			c5,2.8,10.3,5.1,15.8,7c2.1,0.7,4.3,1.4,6.5,1.9c0.4,0.1,0.9,0.2,1.3,0.3v34.9H351.1z"/>
	</g>
</g>
</svg>
