<?xml version="1.0" encoding="utf-8"?>
<!-- Generator: Adobe Illustrator 23.0.0, SVG Export Plug-In . SVG Version: 6.00 Build 0)  -->
<svg version="1.1" id="Layer_1" xmlns="http://www.w3.org/2000/svg" xmlns:xlink="http://www.w3.org/1999/xlink" x="0px" y="0px"
	 viewBox="0 0 440 440" style="enable-background:new 0 0 440 440;" xml:space="preserve">
<style type="text/css">
	.st0{fill:#69939F;}
	.st1{fill:#FFFFFF;stroke:#FFFFFF;stroke-width:3;stroke-miterlimit:10;}
</style>
<title>ChoosePgh</title>
<g>
	<g>
		<path class="st0" d="M220,19.6c-110.8,0-200.9,90.1-200.9,200.9S109.2,421.4,220,421.4s200.9-90.1,200.9-200.9
			C420.9,109.8,330.8,19.6,220,19.6z M220,411.1c-105.1,0-190.6-85.5-190.6-190.6C29.4,115.5,114.9,30,220,30
			s190.6,85.5,190.6,190.6C410.5,325.6,325,411.1,220,411.1z"/>
	</g>
</g>
<g>
	<g>
		<circle class="st0" cx="220" cy="220.6" r="179.2"/>
	</g>
</g>
<g>
	<g>
		<g>
			<path class="st1" d="M348,352H92.1c-1.3,0-2.6-0.7-3.2-1.9c-0.7-1.2-0.6-2.6,0.1-3.7l64.9-104.7c1-1.5,2.9-2.2,4.6-1.5l14,6
				l55.1-94.6c0.7-1.1,1.9-1.8,3.2-1.8c0,0,0,0,0,0c1.3,0,2.5,0.7,3.2,1.8l117.2,194.9c0.7,1.1,0.7,2.6,0.1,3.7
				C350.6,351.3,349.3,352,348,352z M98.7,344.6h242.7l-110.7-184l-53.6,92.1c-0.9,1.6-2.9,2.3-4.6,1.5l-14.1-6L98.7,344.6z"/>
		</g>
		<g>
			<path class="st1" d="M268.8,217.1"/>
		</g>
		<g>
			<path class="st1" d="M256.9,235.8c-1,0-2-0.4-2.7-1.2l-10-11l-10,11c-0.7,0.8-1.7,1.2-2.7,1.2s-2-0.4-2.7-1.2l-10-11l-10,11
				c-0.7,0.8-1.7,1.2-2.7,1.2c-1,0-2-0.4-2.7-1.2l-12.7-14c-1.4-1.5-1.3-3.8,0.3-5.2c1.5-1.4,3.8-1.3,5.2,0.3l10,11l10-11
				c0.7-0.8,1.7-1.2,2.7-1.2s2,0.4,2.7,1.2l10,11l10-11c0.7-0.8,1.7-1.2,2.7-1.2s2,0.4,2.7,1.2l10,11l10-11c1.4-1.5,3.7-1.6,5.2-0.3
				c1.5,1.4,1.6,3.7,0.3,5.2l-12.7,14C258.9,235.3,257.9,235.8,256.9,235.8z"/>
		</g>
		<g>
			<path class="st1" d="M162.9,274.1c-0.6,0-1.3-0.2-1.8-0.5c-1.8-1-2.4-3.3-1.4-5l11.2-19.5c1-1.8,3.3-2.4,5-1.4
				c1.8,1,2.4,3.3,1.4,5l-11.2,19.5C165.4,273.4,164.2,274.1,162.9,274.1z"/>
		</g>
		<g>
			<path class="st1" d="M230.8,159.2c-2,0-3.7-1.7-3.7-3.7V80.4c0-2,1.7-3.7,3.7-3.7c2,0,3.7,1.7,3.7,3.7v75.1
				C234.4,157.6,232.8,159.2,230.8,159.2z"/>
		</g>
		<g>
			<path class="st1" d="M230.8,113.5h-62.3c-1.5,0-2.8-0.9-3.4-2.3c-0.6-1.4-0.3-3,0.8-4l11.9-12.1L165.9,83c-1-1.1-1.3-2.6-0.8-4
				c0.6-1.4,1.9-2.3,3.4-2.3h62.3c2,0,3.7,1.7,3.7,3.7v29.3C234.4,111.8,232.8,113.5,230.8,113.5z M177.3,106.1h49.8v-22h-49.8
				l8.2,8.4c1.4,1.4,1.4,3.7,0,5.2L177.3,106.1z"/>
		</g>
	</g>
	<g>
		<path class="st1" d="M299.6,321.8c-1.2,0-2.4-0.6-3.1-1.7l-17.6-28.2c-1.1-1.7-0.5-4,1.2-5.1c1.7-1.1,4-0.5,5.1,1.2l17.6,28.2
			c1.1,1.7,0.5,4-1.2,5.1C301,321.6,300.3,321.8,299.6,321.8z"/>
	</g>
	<g>
		<path class="st1" d="M138.5,316.2c-0.7,0-1.3-0.2-1.9-0.6c-1.7-1.1-2.3-3.3-1.2-5.1l12.7-20.4c1.1-1.7,3.3-2.3,5.1-1.2
			c1.7,1.1,2.3,3.3,1.2,5.1l-12.7,20.4C140.9,315.6,139.7,316.2,138.5,316.2z"/>
	</g>
</g>
</svg>
